<svg xmlns="http://www.w3.org/2000/svg" xmlns:xlink="http://www.w3.org/1999/xlink" width="1600" height="313" viewBox="0 0 1600 313">
    <defs>
        <path id="a" d="M0 0h1609v313H0z"/>
    </defs>
    <g fill="none" fill-rule="evenodd" transform="translate(-5)">
        <mask id="b" fill="#fff">
            <use xlink:href="#a"/>
        </mask>
        <use fill="#F8F8F8" xlink:href="#a"/>
        <g fill="#15BAE6" fill-opacity=".08" mask="url(#b)">
            <path d="M1507.313 207c-10.562 0-21.582 3.122-31.924 9.012l-275.532 157.392c-30.684 17.473-46.482 53.925-35.227 81.167 6.55 15.912 21.532 25.429 40.03 25.429 10.539 0 21.623-3.122 31.949-9.052l275.557-157.336c30.634-17.52 46.45-53.91 35.218-81.167-6.55-15.928-21.532-25.445-40.071-25.445M1312.313-193c-10.562 0-21.582 3.122-31.924 9.012L1004.857-26.596C974.173-9.123 958.375 27.329 969.63 54.57 976.18 70.483 991.162 80 1009.66 80c10.539 0 21.623-3.122 31.949-9.052l275.557-157.336c30.634-17.52 46.45-53.91 35.218-81.167-6.55-15.928-21.532-25.445-40.071-25.445M1602.295-158c-24.347 0-49.747 7.206-73.587 20.798L893.57 226.008c-70.73 40.323-107.148 124.443-81.202 187.31C827.465 450.038 862.003 472 904.644 472c24.29 0 49.841-7.206 73.643-20.889l635.195-363.083c70.617-40.431 107.072-124.406 81.183-187.31-15.097-36.755-49.635-58.718-92.37-58.718"/>
        </g>
    </g>
</svg>
