<svg xmlns="http://www.w3.org/2000/svg" width="44" height="44" viewBox="0 0 44 44">
    <g fill="#15BAE6" fill-rule="evenodd" stroke="#15BAE6" stroke-width="2">
        <path d="M21.801 1.4C10.332 1.4 1 10.732 1 22.201c0 11.469 9.332 20.801 20.801 20.801 11.469 0 20.801-9.332 20.801-20.801C42.602 10.732 33.27 1.4 21.801 1.4zm0 40c-10.586 0-19.199-8.613-19.199-19.199 0-10.586 8.613-19.199 19.199-19.199C32.387 3.002 41 11.615 41 22.201 41 32.787 32.387 41.4 21.801 41.4z"/>
        <path d="M31.602 13.67L19.305 27.502l-7.407-5.926a.8.8 0 1 0-1 1.25l8 6.398A.799.799 0 0 0 20 29.13l12.797-14.398a.795.795 0 0 0-.067-1.129.794.794 0 0 0-1.128.067z"/>
    </g>
</svg>
