<svg xmlns="http://www.w3.org/2000/svg" xmlns:xlink="http://www.w3.org/1999/xlink" width="135" height="40" viewBox="0 0 135 40">
    <defs>
        <path id="a" d="M0 0h135v40H0z"/>
        <path id="c" d="M0 40h135V0H0z"/>
    </defs>
    <g fill="none" fill-rule="evenodd">
        <mask id="b" fill="#fff">
            <use xlink:href="#a"/>
        </mask>
        <path fill="#FFF" d="M130 0H5C2.25 0 0 2.25 0 5v30c0 2.75 2.25 5 5 5h125c2.75 0 5-2.25 5-5V5c0-2.75-2.25-5-5-5m0 .8c2.316 0 4.2 1.884 4.2 4.2v30c0 2.316-1.884 4.2-4.2 4.2H5A4.205 4.205 0 0 1 .8 35V5C.8 2.684 2.684.8 5 .8h125" mask="url(#b)"/>
        <mask id="d" fill="#fff">
            <use xlink:href="#c"/>
        </mask>
        <path fill="#FFF" d="M106.936 30h1.865V17.499h-1.865V30zm16.807-7.998l-2.139 5.42h-.064l-2.22-5.42h-2.01l3.33 7.575-1.899 4.214h1.946l5.131-11.789h-2.075zM113.16 28.58c-.61 0-1.463-.306-1.463-1.062 0-.964 1.062-1.335 1.979-1.335.819 0 1.206.178 1.704.418a2.262 2.262 0 0 1-2.22 1.979zm.226-6.852c-1.351 0-2.75.596-3.329 1.914l1.656.692c.354-.692 1.013-.917 1.705-.917.965 0 1.946.579 1.962 1.608v.129c-.338-.193-1.062-.482-1.946-.482-1.786 0-3.603.981-3.603 2.814 0 1.673 1.464 2.751 3.104 2.751 1.254 0 1.947-.563 2.38-1.223h.065v.965h1.802v-4.793c0-2.219-1.658-3.458-3.796-3.458zm-11.532 1.796H99.2v-4.285h2.654c1.395 0 2.187 1.154 2.187 2.142 0 .969-.792 2.143-2.187 2.143zm-.048-6.026h-4.471V30H99.2v-4.736h2.606c2.068 0 4.101-1.498 4.101-3.883s-2.033-3.883-4.101-3.883zM77.425 28.582c-1.289 0-2.368-1.079-2.368-2.561 0-1.499 1.079-2.594 2.368-2.594 1.272 0 2.271 1.095 2.271 2.594 0 1.482-.999 2.561-2.271 2.561zm2.142-5.88h-.064c-.419-.499-1.225-.951-2.239-.951-2.127 0-4.077 1.869-4.077 4.27 0 2.384 1.95 4.237 4.077 4.237 1.014 0 1.82-.451 2.239-.967h.064v.612c0 1.628-.87 2.497-2.271 2.497-1.144 0-1.853-.821-2.143-1.514l-1.627.677c.467 1.127 1.707 2.513 3.77 2.513 2.191 0 4.044-1.289 4.044-4.431v-7.636h-1.773v.693zM82.629 30h1.868V17.499h-1.868V30zm4.623-4.124c-.048-1.644 1.273-2.481 2.223-2.481.742 0 1.37.371 1.58.902l-3.803 1.579zm5.8-1.418c-.355-.95-1.434-2.707-3.641-2.707-2.191 0-4.012 1.724-4.012 4.254 0 2.384 1.805 4.253 4.221 4.253 1.949 0 3.077-1.192 3.545-1.885l-1.45-.967c-.484.709-1.144 1.176-2.095 1.176-.95 0-1.627-.435-2.061-1.289l5.686-2.352-.193-.483zm-45.308-1.401v1.804h4.317c-.128 1.015-.467 1.756-.982 2.271-.629.629-1.612 1.322-3.335 1.322-2.659 0-4.737-2.143-4.737-4.801 0-2.658 2.078-4.802 4.737-4.802 1.434 0 2.481.564 3.254 1.29l1.273-1.273c-1.08-1.031-2.513-1.821-4.527-1.821-3.642 0-6.703 2.965-6.703 6.606 0 3.64 3.061 6.605 6.703 6.605 1.965 0 3.447-.645 4.607-1.853 1.192-1.192 1.563-2.868 1.563-4.221 0-.418-.032-.805-.097-1.127h-6.073zm11.078 5.525c-1.288 0-2.4-1.063-2.4-2.577 0-1.531 1.112-2.578 2.4-2.578 1.289 0 2.401 1.047 2.401 2.578 0 1.514-1.112 2.577-2.401 2.577zm0-6.831c-2.352 0-4.269 1.789-4.269 4.254 0 2.449 1.917 4.253 4.269 4.253 2.353 0 4.27-1.804 4.27-4.253 0-2.465-1.917-4.254-4.27-4.254zm9.314 6.831c-1.289 0-2.401-1.063-2.401-2.577 0-1.531 1.112-2.578 2.401-2.578 1.289 0 2.4 1.047 2.4 2.578 0 1.514-1.111 2.577-2.4 2.577zm0-6.831c-2.352 0-4.269 1.789-4.269 4.254 0 2.449 1.917 4.253 4.269 4.253 2.352 0 4.269-1.804 4.269-4.253 0-2.465-1.917-4.254-4.269-4.254zM10.435 7.538c-.29.308-.463.786-.463 1.405v22.116c0 .62.172 1.097.463 1.405l.074.072L22.9 20.147v-.292l-12.39-12.39-.074.073z" mask="url(#d)"/>
        <path stroke="#0C132E" stroke-width=".25" d="M10.435 7.538c-.29.308-.463.786-.463 1.405v22.116c0 .62.172 1.097.463 1.405l.074.072L22.9 20.147v-.292l-12.39-12.39-.074.073z" mask="url(#d)"/>
        <path fill="#FFF" d="M27.028 24.278l-4.13-4.13v-.293l4.13-4.13.094.052 4.893 2.78c1.397.794 1.397 2.094 0 2.888l-4.893 2.78-.094.053z" mask="url(#d)"/>
        <path stroke="#0C132E" stroke-width=".25" d="M27.028 24.278l-4.13-4.13v-.293l4.13-4.13.094.052 4.893 2.78c1.397.794 1.397 2.094 0 2.888l-4.893 2.78-.094.053z" mask="url(#d)"/>
        <g mask="url(#d)">
            <path fill="#FFF" d="M27.122 24.225l-4.224-4.224-12.463 12.463c.461.488 1.222.548 2.079.061l14.608-8.3"/>
            <path stroke="#0C132E" stroke-width=".25" d="M27.122 24.225l-4.224-4.224-12.463 12.463c.461.488 1.222.548 2.079.061l14.608-8.3"/>
        </g>
        <path fill="#FFF" d="M27.122 15.777l-14.608-8.3c-.857-.487-1.618-.427-2.079.06l12.463 12.464 4.224-4.224z" mask="url(#d)"/>
        <path stroke="#0C132E" stroke-width=".25" d="M27.122 15.777l-14.608-8.3c-.857-.487-1.618-.427-2.079.06l12.463 12.464 4.224-4.224z" mask="url(#d)"/>
        <g mask="url(#d)">
            <path fill="#FFF" d="M27.029 24.132L12.514 32.38c-.812.46-1.538.43-2.004.01l-.074.075.073.072v-.001c.467.42 1.193.45 2.005-.01l14.608-8.301-.093-.093z"/>
            <path stroke="#0C132E" stroke-width=".25" d="M27.029 24.132L12.514 32.38c-.812.46-1.538.43-2.004.01l-.074.075.073.072v-.001c.467.42 1.193.45 2.005-.01l14.608-8.301-.093-.093z"/>
        </g>
        <g mask="url(#d)">
            <path fill="#FFF" d="M10.435 32.318c-.29-.308-.463-.786-.463-1.405v.146c0 .62.172 1.097.463 1.405l.074-.074-.074-.072z"/>
            <path stroke="#0C132E" stroke-width=".25" d="M10.435 32.318c-.29-.308-.463-.786-.463-1.405v.146c0 .62.172 1.097.463 1.405l.074-.074-.074-.072z"/>
        </g>
        <g mask="url(#d)">
            <path fill="#FFF" d="M32.015 21.299l-4.986 2.833.093.093 4.893-2.78c.699-.397 1.048-.92 1.048-1.443-.06.473-.414.937-1.048 1.297"/>
            <path stroke="#0C132E" stroke-width=".25" d="M32.015 21.299l-4.986 2.833.093.093 4.893-2.78c.699-.397 1.048-.92 1.048-1.443-.06.473-.414.937-1.048 1.297z"/>
        </g>
        <g mask="url(#d)">
            <path fill="#FFF" d="M12.514 7.623l19.5 11.08c.635.36.99.824 1.049 1.298 0-.523-.35-1.047-1.048-1.444L12.514 7.477c-1.398-.794-2.541-.134-2.541 1.466v.146c0-1.6 1.143-2.26 2.54-1.466"/>
            <path stroke="#0C132E" stroke-width=".25" d="M12.514 7.623l19.5 11.08c.635.36.99.824 1.049 1.298 0-.523-.35-1.047-1.048-1.444L12.514 7.477c-1.398-.794-2.541-.134-2.541 1.466v.146c0-1.6 1.143-2.26 2.54-1.466z"/>
        </g>
        <path fill="#FFF" d="M42.108 12.263h1.064c.693 0 1.242-.198 1.647-.595.405-.397.607-.953.607-1.668 0-.71-.202-1.263-.607-1.663-.405-.4-.954-.6-1.647-.6h-1.064v4.526zm-.77.737V7h1.834c.922 0 1.66.278 2.213.834.553.556.83 1.278.83 2.166 0 .888-.277 1.61-.83 2.166-.553.556-1.29.834-2.213.834h-1.835zM47.297 13h.771V7h-.771zM51.134 13.134c-.436 0-.861-.142-1.277-.427a1.976 1.976 0 0 1-.818-1.198l.704-.285c.084.329.255.607.515.833.26.226.552.34.876.34.335 0 .622-.088.859-.264a.844.844 0 0 0 .356-.717c0-.335-.118-.593-.356-.775-.237-.181-.613-.35-1.127-.507-.531-.167-.933-.384-1.207-.65-.273-.265-.411-.604-.411-1.017 0-.431.17-.805.512-1.123.34-.318.785-.478 1.332-.478.509 0 .922.127 1.24.38.319.256.526.534.62.835l-.703.293c-.051-.19-.175-.365-.373-.528-.198-.161-.454-.242-.767-.242-.296 0-.55.082-.758.247a.754.754 0 0 0-.315.616.7.7 0 0 0 .289.565c.194.154.477.292.85.415.297.095.544.187.743.277.198.089.4.208.603.356.204.148.357.332.46.553.104.22.156.476.156.767 0 .29-.06.55-.18.779-.12.229-.28.41-.478.545a2.378 2.378 0 0 1-1.345.41M55.014 9.832h1.29c.325 0 .585-.108.78-.326.196-.218.293-.458.293-.721 0-.263-.097-.503-.293-.721-.195-.218-.455-.327-.78-.327h-1.29v2.095zm0 3.168h-.771V7h2.045c.508 0 .949.169 1.32.507.372.338.557.764.557 1.278s-.185.94-.557 1.277a1.893 1.893 0 0 1-1.32.508h-1.274V13zM60.213 11.722a2.2 2.2 0 0 0 1.63.674c.642 0 1.186-.224 1.63-.674.444-.45.667-1.024.667-1.722s-.223-1.273-.667-1.722a2.203 2.203 0 0 0-1.63-.675c-.643 0-1.186.225-1.63.675-.443.45-.666 1.024-.666 1.722s.223 1.272.666 1.722m3.83.502c-.59.607-1.323.91-2.2.91-.877 0-1.61-.303-2.2-.91-.59-.606-.883-1.347-.883-2.224 0-.877.294-1.619.884-2.225.589-.606 1.322-.909 2.199-.909.872 0 1.603.304 2.196.913.592.61.888 1.35.888 2.221 0 .877-.295 1.618-.884 2.224M66.009 13V7h.938l2.916 4.667h.034l-.034-1.156V7h.772v6h-.805l-3.05-4.894h-.034l.034 1.157V13zM72.73 6.53h-.672l.437-1.072h.838L72.73 6.53zM72.007 13h.771V7h-.77v6zM75.637 13l-2.111-6h.854l1.643 4.869h.033l1.71-4.87h.854l-2.178 6zM82.995 7.737h-2.732V9.64h2.463v.721h-2.463v1.902h2.732V13h-3.503V7h3.503zM84.202 13V7h.771v5.263h2.597V13zM90.554 13V7h.938l2.916 4.667h.034l-.034-1.156V7h.772v6h-.805l-3.05-4.894h-.034l.034 1.157V13zM97.629 11.722a2.2 2.2 0 0 0 1.63.674c.642 0 1.186-.224 1.63-.674.444-.45.667-1.024.667-1.722s-.223-1.273-.667-1.722a2.203 2.203 0 0 0-1.63-.675c-.643 0-1.186.225-1.63.675-.443.45-.666 1.024-.666 1.722s.223 1.272.666 1.722m3.83.502c-.59.607-1.323.91-2.2.91-.877 0-1.61-.303-2.2-.91-.59-.606-.883-1.347-.883-2.224 0-.877.294-1.619.884-2.225.589-.606 1.322-.909 2.199-.909.872 0 1.603.304 2.196.913.592.61.888 1.35.888 2.221 0 .877-.295 1.618-.884 2.224" mask="url(#d)"/>
    </g>
</svg>
