<svg xmlns="http://www.w3.org/2000/svg" width="102" height="102" viewBox="0 0 102 102">
    <g fill="none" fill-rule="evenodd">
        <circle cx="51" cy="51" r="51" fill="#15BAE6"/>
        <g fill="#FFF" fill-rule="nonzero">
            <path d="M76.477 62.577h-1.524V35H29.047v27.577h-1.524c-.841 0-1.523.686-1.523 1.532 0 .847.682 1.532 1.523 1.532h22.954v3.449a4.587 4.587 0 0 0-3.047 4.314C47.43 75.938 49.48 78 52 78c2.52 0 4.57-2.062 4.57-4.596a4.587 4.587 0 0 0-3.047-4.314V65.64h22.954c.841 0 1.523-.685 1.523-1.532 0-.846-.682-1.532-1.523-1.532zm-21.43-9.192c.842 0 1.523.685 1.523 1.532 0 .846-.681 1.532-1.523 1.532H41.336v1.532c0 .847-.682 1.532-1.523 1.532a1.527 1.527 0 0 1-1.524-1.532v-1.532h-1.523a1.527 1.527 0 0 1-1.524-1.532c0-.847.682-1.532 1.524-1.532h1.523V39.596c0-.846.682-1.532 1.523-1.532.842 0 1.524.686 1.524 1.532v10.261l3.303-4.982c.253-.382.663-.63 1.118-.675.429-.036.905.115 1.226.441l1.732 1.743 5.064-7.638a1.52 1.52 0 0 1 2.113-.425c.7.47.89 1.42.422 2.125l-6.093 9.192c-.253.382-.664.63-1.12.675a1.55 1.55 0 0 1-1.225-.441l-1.732-1.743-3.485 5.256h12.388zm12.187 3.064h-6.093a1.527 1.527 0 0 1-1.524-1.532c0-.847.682-1.532 1.524-1.532h6.093c.842 0 1.524.685 1.524 1.532 0 .846-.682 1.532-1.524 1.532zm0-6.128h-6.093a1.527 1.527 0 0 1-1.524-1.532c0-.847.682-1.532 1.524-1.532h6.093c.842 0 1.524.685 1.524 1.532 0 .846-.682 1.532-1.524 1.532zm0-6.129h-6.093a1.527 1.527 0 0 1-1.524-1.532c0-.846.682-1.532 1.524-1.532h6.093c.842 0 1.524.686 1.524 1.532 0 .847-.682 1.532-1.524 1.532zM27.523 28.95h1.524V32h45.906v-3.05h1.524c.841 0 1.523-.66 1.523-1.475C78 26.66 77.318 26 76.477 26H27.523c-.841 0-1.523.66-1.523 1.475 0 .816.682 1.476 1.523 1.476z"/>
        </g>
    </g>
</svg>
