<svg xmlns="http://www.w3.org/2000/svg" width="144" height="144" viewBox="0 0 144 144">
    <g fill="none" fill-rule="evenodd" transform="translate(2 2)">
        <circle cx="70" cy="70" r="70" stroke="#15BAE6" stroke-width="4"/>
        <circle cx="70.449" cy="70.449" r="61.474" fill="#F8F8F8"/>
        <g fill-rule="nonzero">
            <g fill="#78B9EB">
                <path d="M70.365 62.734v2.708a4.897 4.897 0 0 0 0-2.708z"/>
                <path d="M66.613 56.305a9.84 9.84 0 0 0-9.891-1.015c-.816 5.233 2.799 10.131 8.074 10.94a9.735 9.735 0 0 0 5.57-.789v-2.707a9.535 9.535 0 0 0-3.753-6.429zM70.365 45.815v2.707a4.897 4.897 0 0 0 0-2.707z"/>
                <path d="M66.613 39.386a9.84 9.84 0 0 0-9.891-1.015c-.816 5.233 2.799 10.131 8.074 10.94a9.735 9.735 0 0 0 5.57-.789v-2.707a9.534 9.534 0 0 0-3.753-6.429zM80.276 59.543a9.663 9.663 0 0 0 3.933-9.06 9.84 9.84 0 0 0-9.91.82 9.55 9.55 0 0 0-3.934 6.834v2.229a9.842 9.842 0 0 0 9.91-.823z"/>
                <path d="M70.432 60.366v-2.229a4.897 4.897 0 0 0 0 2.229zM80.257 42.432a9.663 9.663 0 0 0 3.752-9.137c-4.835-2.242-10.588-.17-12.848 4.626a9.52 9.52 0 0 0-.795 5.526 9.841 9.841 0 0 0 9.891-1.015z"/>
            </g>
            <g fill="#1E81CE">
                <path d="M71.708 69.258v-3.494a11.76 11.76 0 0 0 .01-2.752 11.7 11.7 0 0 0 2.581.289c2.38.006 4.703-.735 6.639-2.12a11.532 11.532 0 0 0 4.645-10.742 1.71 1.71 0 0 0-.97-1.345 11.537 11.537 0 0 0-11.67.988c-.436.316-.849.663-1.235 1.038v-2.45a11.77 11.77 0 0 0 0-2.797c.791.168 1.598.252 2.407.253 2.461.008 4.859-.783 6.831-2.254a11.532 11.532 0 0 0 4.433-10.833 1.71 1.71 0 0 0-.996-1.325 11.542 11.542 0 0 0-11.649 1.217 11.345 11.345 0 0 0-4.173 6.29c-.402-.421-.838-.81-1.301-1.161a11.548 11.548 0 0 0-11.65-1.218 1.71 1.71 0 0 0-.995 1.325A11.532 11.532 0 0 0 59.047 49a11.365 11.365 0 0 0 6.825 2.254c.811 0 1.62-.086 2.414-.254v5.04a11.308 11.308 0 0 0-1.026-.886 11.552 11.552 0 0 0-11.65-1.217 1.71 1.71 0 0 0-.995 1.324 11.532 11.532 0 0 0 4.432 10.833 11.365 11.365 0 0 0 6.825 2.255c.811-.001 1.62-.087 2.414-.255v1.164c-10.35.944-17.975 10.093-17.03 20.435.944 10.342 10.101 17.96 20.452 17.016 10.35-.944 17.975-10.093 17.03-20.435-.825-9.034-7.989-16.191-17.03-17.016zm3.233-16.402a8.074 8.074 0 0 1 7.302-1.037c.081 4.38-3.407 7.998-7.791 8.079a7.947 7.947 0 0 1-2.744-.435v-1.087a8.005 8.005 0 0 1 3.233-5.52zm-.154-17.19a8.08 8.08 0 0 1 7.28-1.179 8.064 8.064 0 0 1-3.174 6.65 8.076 8.076 0 0 1-7.28 1.179 8.064 8.064 0 0 1 3.174-6.65zM61.1 46.266a8.064 8.064 0 0 1-3.174-6.653c4.138-1.39 8.62.834 10.012 4.968.165.492.282.999.348 1.514v1.384a8.068 8.068 0 0 1-7.186-1.213zm0 17.094a8.064 8.064 0 0 1-3.174-6.653c4.138-1.39 8.62.834 10.012 4.968.165.492.282 1 .348 1.514v1.384A8.063 8.063 0 0 1 61.1 63.36zm8.897 40c-8.504 0-15.398-6.888-15.398-15.385 0-8.496 6.894-15.384 15.398-15.384 8.503 0 15.397 6.888 15.397 15.384-.01 8.493-6.897 15.375-15.397 15.385z"/>
                <path d="M73.418 79.427h-1.71v-3.419h-3.422v3.42h-1.711a3.42 3.42 0 0 0-3.422 3.418v3.419a3.42 3.42 0 0 0 3.422 3.418h6.843v3.42h-6.843v-1.71h-3.422v1.71a3.42 3.42 0 0 0 3.422 3.418h1.71v3.419h3.422V96.52h1.711a3.42 3.42 0 0 0 3.422-3.419v-3.419a3.42 3.42 0 0 0-3.422-3.418h-6.843v-3.419h6.843v1.71h3.422v-1.71a3.42 3.42 0 0 0-3.422-3.419zM78.55 86.265h3.423v3.418H78.55zM58.02 86.265h3.422v3.418h-3.421z"/>
            </g>
        </g>
    </g>
</svg>
