<svg xmlns="http://www.w3.org/2000/svg" width="102" height="102" viewBox="0 0 102 102">
    <g fill="none" fill-rule="evenodd">
        <circle cx="51" cy="51" r="51" fill="#15BAE6"/>
        <g fill="#FFF" fill-rule="nonzero">
            <path d="M61.709 36.824c-1.692-.674-2.18-1.082-2.18-1.82 0-.589.448-1.277 1.714-1.277 1.12 0 1.978.439 1.985.443.09.047.192.073.292.073a.59.59 0 0 0 .552-.376l.307-.782a.483.483 0 0 0-.262-.622c-.69-.298-2.036-.53-2.05-.532-.022-.003-.097-.02-.097-.107l-.005-1.134a.63.63 0 0 0-.638-.62h-.552a.63.63 0 0 0-.638.62l.001 1.192c0 .092-.1.131-.136.14-1.7.403-2.763 1.641-2.763 3.204 0 1.948 1.62 2.829 3.367 3.49 1.398.545 1.968 1.098 1.968 1.91 0 .883-.808 1.5-1.964 1.5-.988 0-2.325-.623-2.338-.629a.627.627 0 0 0-.27-.06.597.597 0 0 0-.564.39l-.293.79c-.105.295.056.535.262.642.82.425 2.41.674 2.48.685.019.003.116.037.116.125v1.187c0 .341.286.62.638.62h.57a.63.63 0 0 0 .64-.62v-1.25c0-.116.086-.127.104-.131 1.811-.405 2.927-1.723 2.927-3.378 0-1.7-.95-2.8-3.173-3.673z"/>
            <path d="M60.997 23.08c-8.269 0-14.971 6.668-14.971 14.893 0 8.224 6.702 14.892 14.97 14.892 8.269 0 14.971-6.668 14.971-14.892 0-8.225-6.702-14.892-14.97-14.892zm0 26.333c-6.353 0-11.502-5.122-11.502-11.44 0-6.319 5.15-11.44 11.502-11.44s11.5 5.121 11.5 11.44c0 6.318-5.148 11.44-11.5 11.44z"/>
            <g>
                <path d="M73.07 59.46c-3.035 1.641-7.21 3.16-11.372 3.8-3.703.569-10.67-.804-10.67-2.426 0-.614 6.11 1.514 9.807.548 2.834-.742 2.431-3.34.89-3.684-1.533-.34-10.512-3.566-14.348-3.677-1.807-.052-6.267.616-8.426.96-.74.119-1.203.106-1.25.8-.214 3.223-.637 9.816-.868 13.26-.005.073.098 1.052.922.363.901-.754 2.166-1.59 3.336-1.329 1.835.408 17.71 3.26 19.899 2.76 3.132-.714 12-5.865 13.7-7.467 2.635-2.482.587-5.103-1.62-3.909zM33.321 54.856l-8.316-.402c-.642-.03-1.298.444-1.458 1.054l-1.512 13.459c-.16.61.236 1.13.878 1.154h9.217c.642.024 1.208-.47 1.257-1.099L34.4 56.055a1.12 1.12 0 0 0-1.078-1.199zm-4.896 13.481c-1.27 0-2.3-1.009-2.3-2.254s1.03-2.254 2.3-2.254c1.27 0 2.3 1.01 2.3 2.254 0 1.245-1.03 2.254-2.3 2.254z"/>
            </g>
        </g>
    </g>
</svg>
