<svg xmlns="http://www.w3.org/2000/svg" width="144" height="144" viewBox="0 0 144 144">
    <g fill="none" fill-rule="evenodd" transform="translate(2 2)">
        <circle cx="70" cy="70" r="70" stroke="#15BAE6" stroke-width="4"/>
        <circle cx="70.449" cy="70.449" r="61.474" fill="#F8F8F8"/>
        <g fill-rule="nonzero">
            <g fill="#78B9EB" transform="translate(45.77 34.103)">
                <ellipse cx="47.285" cy="40.951" rx="4.719" ry="4.714"/>
                <path d="M12.682 51.95H50.43v6.285H12.682zM14.255 37.809h9.437v6.285h-9.437zM4.818.098H1.672C.803.098.1.802.1 1.67v10.998h6.292V1.67C6.39.802 5.686.1 4.818.1zM15.828 12.668h29.884v6.285H15.828z"/>
            </g>
            <g fill="#1E81CE">
                <path d="M36.895 41.783v28.425c0 2.617 2.13 4.738 4.756 4.738h1.585v-3.158h-1.585a1.582 1.582 0 0 1-1.586-1.58V41.783c0-.872.71-1.58 1.586-1.58h1.585v-3.158h-1.585c-2.627 0-4.756 2.121-4.756 4.738zM90.794 59.154h3.171V41.783c0-2.617-2.13-4.738-4.756-4.738H62.26v3.159h26.95c.876 0 1.585.707 1.585 1.579v3.158H62.26V48.1h28.535v3.158H62.26v3.158h28.535v4.738zM101.891 62.312H57.504v3.159h44.387c.876 0 1.586.707 1.586 1.579v28.426c0 .872-.71 1.579-1.586 1.579H57.504v3.158h44.387c2.627 0 4.756-2.121 4.756-4.737V67.05c0-2.616-2.13-4.738-4.756-4.738z"/>
                <path d="M100.306 74.946c0-3.489-2.839-6.317-6.341-6.317-3.502 0-6.341 2.828-6.341 6.317 0 3.489 2.839 6.317 6.341 6.317 3.502 0 6.341-2.828 6.341-6.317zm-9.512 0a3.164 3.164 0 0 1 3.171-3.158 3.164 3.164 0 0 1 3.17 3.158 3.164 3.164 0 0 1-3.17 3.158 3.164 3.164 0 0 1-3.17-3.158zM57.504 86v6.317c0 .872.71 1.58 1.585 1.58h38.047c.875 0 1.585-.708 1.585-1.58V86c0-.872-.71-1.579-1.585-1.579H59.089c-.876 0-1.585.707-1.585 1.58zm3.17 1.58H95.55v3.158H60.674v-3.159zM70.186 79.684c.875 0 1.585-.708 1.585-1.58v-6.317c0-.872-.71-1.579-1.585-1.579h-9.512c-.875 0-1.585.707-1.585 1.58v6.316c0 .872.71 1.58 1.585 1.58h9.512zm-7.927-6.317h6.342v3.158h-6.342v-3.158zM59.089 55.996V40.204c0-.873-.71-1.58-1.586-1.58h-3.17v-3.158a3.164 3.164 0 0 0-3.17-3.158h-3.171a3.165 3.165 0 0 0-3.17 3.158v60.01c0 .2.037.399.112.585l3.17 7.896a1.587 1.587 0 0 0 2.946 0l3.17-7.896a1.57 1.57 0 0 0 .113-.586V41.783h1.585v14.213h3.17zm-7.927-20.53v9.475h-3.17v-9.475h3.17zM49.577 99.12l-1.585-3.948V48.1h3.17v47.072l-1.585 3.948z"/>
            </g>
        </g>
    </g>
</svg>
