<svg xmlns="http://www.w3.org/2000/svg" width="35" height="35" viewBox="0 0 35 35">
    <g fill="#B9B9B9" fill-rule="nonzero">
        <path d="M24.063 0H10.938C4.897 0 0 4.898 0 10.938v13.124C0 30.102 4.898 35 10.938 35h13.124C30.102 35 35 30.102 35 24.062V10.938C35 4.897 30.102 0 24.062 0zm7.656 24.063c0 4.221-3.435 7.656-7.657 7.656H10.938c-4.221 0-7.656-3.435-7.656-7.657V10.938c0-4.221 3.435-7.656 7.656-7.656h13.126c4.221 0 7.656 3.435 7.656 7.656v13.126z"/>
        <path d="M17.12 8.37a8.75 8.75 0 1 0 0 17.5 8.75 8.75 0 0 0 0-17.5zm0 14.218a5.476 5.476 0 0 1-5.47-5.468 5.475 5.475 0 0 1 5.47-5.47 5.475 5.475 0 0 1 5.468 5.47 5.476 5.476 0 0 1-5.468 5.468z"/>
        <circle cx="27.011" cy="7.989" r="1.141"/>
    </g>
</svg>
