<svg xmlns="http://www.w3.org/2000/svg" width="102" height="102" viewBox="0 0 102 102">
    <g fill="none" fill-rule="evenodd">
        <circle cx="51" cy="51" r="51" fill="#15BAE6"/>
        <path fill="#FFF" fill-rule="nonzero" d="M72.896 56.088c-.97 9.928-8.892 17.908-18.676 18.82-11.564 1.08-21.426-7.555-22.57-18.778h-2.038c-1.24 0-2.014-1.363-1.394-2.453l4.558-8.016a1.597 1.597 0 0 1 2.788 0l4.558 8.017c.62 1.09-.155 2.452-1.394 2.452h-1.774c1.152 8.38 8.834 14.664 17.642 13.353 6.517-.97 11.804-6.192 12.912-12.786 1.658-9.87-5.821-18.46-15.238-18.46-3.054 0-6.001.9-8.533 2.603-1.175.791-2.804.635-3.666-.498-.939-1.233-.645-2.993.606-3.852a20.407 20.407 0 0 1 9.022-3.433v-3.039h-2.111a1.326 1.326 0 0 1-1.316-1.336v-1.346c0-.738.59-1.336 1.316-1.336h9.793c.726 0 1.315.598 1.315 1.336v1.346c0 .738-.589 1.336-1.315 1.336h-2.326v3.07c10.789 1.479 18.974 11.412 17.841 23zm.681-20.219l-3.966-3.723a1.302 1.302 0 0 0-1.86.074l-1.049 1.153a1.35 1.35 0 0 0 .074 1.888l3.966 3.723c.534.5 1.366.468 1.86-.074l1.048-1.153a1.35 1.35 0 0 0-.073-1.888zm-21.37 5.114V54.05h12.738c0-7.958-5.944-13.067-12.737-13.067z"/>
    </g>
</svg>
