<svg xmlns="http://www.w3.org/2000/svg" width="70" height="64" viewBox="0 0 70 64">
    <g fill="#B9B9B9" fill-rule="evenodd">
        <path d="M60.253 29.578c7.75-4.827 11.696-14.784 8.793-22.193C67.233 2.761 63.112 0 58.02 0c-2.782 0-5.666.85-8.342 2.455l-36.133 21.67c-1.27.983-1.879 2.85-1.36 4.175.33.84 1.083 1.342 2.014 1.342.415 0 .836-.096 1.256-.287.079-.038.144-.081.21-.124a3.581 3.581 0 0 1 .307-.184c.069-.039.133-.073.199-.12.014-.012.03-.023.044-.033L51.559 7.702c1.624-.974 3.38-1.49 5.083-1.49 3.194 0 5.784 1.74 6.923 4.655 1.78 4.538-.735 10.786-5.49 13.642-.178.105-.963.592-.963.592L35.172 38.28c-1.135.681-1.911 1.937-1.976 3.195l-.487 9.64a.537.537 0 0 1-.256.428l-6.33 3.8c-.166.1-.37.1-.534 0a.529.529 0 0 1-.252-.478l.794-18.674a.532.532 0 0 1 .256-.434l27.755-16.668a.48.48 0 0 1 .124-.134c1.41-.983 2.1-2.814 1.57-4.168-.329-.841-1.082-1.342-2.012-1.342-.46 0-.943.124-1.405.36a.517.517 0 0 1-.186.052l-29.86 17.935c-1.146.689-1.922 1.953-1.976 3.22l-1.128 26.483c-.043 1.002.382 1.84 1.137 2.249.762.41 1.807.325 2.722-.224l13.318-8c1.139-.682 1.913-1.935 1.978-3.195l.486-9.639a.531.531 0 0 1 .256-.43l20.086-12.062c.173-.105 1-.615 1-.615M17.76 9c-.542 0-1.107.16-1.637.462l-14.13 8.072C.419 18.43-.391 20.299.186 21.696.522 22.512 1.29 23 2.24 23c.54 0 1.109-.16 1.638-.464l14.131-8.069c1.572-.898 2.383-2.764 1.807-4.162C19.479 9.488 18.71 9 17.76 9"/>
    </g>
</svg>
