<svg xmlns="http://www.w3.org/2000/svg" width="144" height="144" viewBox="0 0 144 144">
    <g fill="none" fill-rule="evenodd" transform="translate(2 2)">
        <circle cx="70.449" cy="69.551" r="61.474" fill="#F8F8F8"/>
        <circle cx="70" cy="70" r="70" stroke="#15BAE6" stroke-width="4"/>
        <g fill-rule="nonzero">
            <g fill="#78B9EB">
                <path d="M48.62 82.837h-.373v2.071c-.01-.7.117-1.396.373-2.071z"/>
                <path d="M35.918 74.552v33.14h12.329v-33.14z"/>
            </g>
            <g fill="#1E81CE">
                <path d="M115.02 71.397a10.217 10.217 0 0 0-14.499 0l-5.106 5.137c.167-.803.254-1.621.263-2.442V54.004c-.008-6.876-5.467-12.489-12.299-12.644v-2.635a4.115 4.115 0 0 0 2.05-3.552v-6.187c0-1.14-.918-2.063-2.05-2.063H66.982c-1.132 0-2.05.924-2.05 2.063v6.187a4.115 4.115 0 0 0 2.05 3.552v2.636c-6.83.154-12.29 5.766-12.298 12.64v20.09c0 .168.02.325.027.49a10.218 10.218 0 0 0-4.126 1.842V74.36c0-1.139-.918-2.062-2.05-2.062H36.237c-1.132 0-2.05.923-2.05 2.062v33c0 1.14.918 2.063 2.05 2.063h12.298c1.132 0 2.05-.924 2.05-2.063v-2.062H83.38c.543 0 1.064-.218 1.449-.605l30.191-30.38c.8-.805.8-2.111 0-2.916zM69.032 31.048H81.33v4.125H69.032v-4.125zM58.783 54.004c.006-4.703 3.793-8.513 8.465-8.519h1.784c1.132 0 2.05-.923 2.05-2.062v-4.125h8.198v4.125c0 1.139.918 2.062 2.05 2.062h1.783c4.673.006 8.46 3.817 8.465 8.519v20.088a8.434 8.434 0 0 1-3.652 6.994c-.064-.029-.136-.04-.205-.066a6.503 6.503 0 0 0-.794-.262c-.114-.029-.225-.064-.34-.086a6.07 6.07 0 0 0-1.158-.124H74.326a10.228 10.228 0 0 0-9.394-6.188h-6.149V54.004zm-12.298 51.294h-8.198V76.423h8.199v28.875zm36.046-4.125H50.585v-16.5a5.544 5.544 0 0 1 .184-1.467c0-.028.01-.057.019-.086a6.13 6.13 0 0 1 5.946-4.635h8.199a6.13 6.13 0 0 1 5.944 4.635 2.052 2.052 0 0 0 1.988 1.553h12.564a2.08 2.08 0 0 1 1.263.448c.332.256.572.613.685 1.018 0 .025.022.044.028.066.053.172.078.35.074.53 0 .556-.226 1.087-.627 1.469-.374.385-.888.6-1.423.594H62.883v4.125h22.546c3.388-.02 6.13-2.778 6.15-6.188 0-.158-.025-.313-.038-.47l11.888-11.952a6.272 6.272 0 0 1 7.006-1.209l-27.904 28.069z"/>
                <path d="M40.336 80.548h4.1v4.125h-4.1zM71.081 74.36h2.05v2.063h4.1V74.36h2.05c2.263 0 4.098-1.846 4.098-4.125V66.11c0-2.278-1.835-4.124-4.099-4.124h-8.199V57.86h8.2v2.063h4.098V57.86c0-2.278-1.835-4.124-4.099-4.124h-2.05v-2.063h-4.099v2.063h-2.05c-2.264 0-4.099 1.846-4.099 4.124v4.125c0 2.279 1.835 4.125 4.1 4.125h8.198v4.125h-8.199v-2.062h-4.099v2.062c0 2.279 1.835 4.125 4.1 4.125z"/>
            </g>
        </g>
    </g>
</svg>
