<svg xmlns="http://www.w3.org/2000/svg" width="144" height="144" viewBox="0 0 144 144">
    <g fill="none" fill-rule="evenodd" transform="translate(2 2)">
        <circle cx="70" cy="70" r="70" stroke="#15BAE6" stroke-width="4"/>
        <circle cx="69.551" cy="70.449" r="61.474" fill="#F8F8F8"/>
        <g fill-rule="nonzero">
            <g fill="#78B9EB" transform="translate(32.308 37.692)">
                <path d="M72.152 30.668H54.998c-1.892.006-3.425 1.528-3.43 3.408v6.815c.005 1.88 1.538 3.402 3.43 3.408h17.154c1.892-.006 3.425-1.528 3.43-3.408v-6.815c-.005-1.88-1.538-3.402-3.43-3.408zM10.4 0C6.61 0 3.537 3.051 3.537 6.815c0 3.764 3.072 6.815 6.861 6.815h58.322V0H10.399z"/>
                <ellipse cx="17.261" cy="51.114" rx="17.153" ry="17.038"/>
            </g>
            <g fill="#1E81CE">
                <path d="M104.287 65.754h-1.716V36.759a1.71 1.71 0 0 0-1.716-1.706H42.523c-4.736.006-8.573 3.82-8.579 8.528v27.29h3.432V50.359a8.521 8.521 0 0 0 5.147 1.75H99.14v13.645H87.13c-2.843 0-5.147 2.29-5.147 5.117v6.822c0 2.826 2.304 5.117 5.147 5.117h12.01v15.35a1.71 1.71 0 0 1-1.716 1.706H66.542v3.411h30.882c2.842 0 5.147-2.29 5.147-5.117V82.81h1.716c2.842 0 5.147-2.29 5.147-5.117v-6.822c0-2.826-2.305-5.117-5.147-5.117zM37.376 43.58c0-2.826 2.304-5.116 5.147-5.116H99.14v10.233H42.523c-2.843 0-5.147-2.29-5.147-5.117zm68.626 34.112a1.71 1.71 0 0 1-1.716 1.706H87.13a1.71 1.71 0 0 1-1.716-1.706v-6.822a1.71 1.71 0 0 1 1.716-1.706h17.157a1.71 1.71 0 0 1 1.715 1.706v6.822z"/>
                <path d="M88.846 72.576h3.43v3.412h-3.43v-3.412zM49.385 69.165c-10.423 0-18.872 8.4-18.872 18.762 0 10.361 8.45 18.761 18.872 18.761 10.423 0 18.873-8.4 18.873-18.761-.013-10.357-8.455-18.75-18.873-18.762zm0 34.112c-8.528 0-15.44-6.873-15.44-15.35 0-8.478 6.912-15.35 15.44-15.35 8.528 0 15.441 6.872 15.441 15.35-.01 8.473-6.917 15.34-15.44 15.35z"/>
                <path d="M52.817 79.399H51.1v-3.411H47.67v3.41h-1.716c-1.895 0-3.431 1.528-3.431 3.412v3.411c0 1.884 1.536 3.411 3.43 3.411h6.864v3.412h-6.863v-1.706h-3.431v1.706c0 1.883 1.536 3.41 3.43 3.41h1.717v3.412h3.43v-3.411h1.717c1.895 0 3.43-1.528 3.43-3.411v-3.412c0-1.884-1.535-3.41-3.43-3.41h-6.863V82.81h6.863v1.706h3.43V82.81c0-1.884-1.535-3.411-3.43-3.411zM57.964 86.221h3.43v3.411h-3.43zM37.376 86.221h3.43v3.411h-3.43zM40.807 41.876h56.617v3.41H40.807z"/>
            </g>
        </g>
    </g>
</svg>
