<svg xmlns="http://www.w3.org/2000/svg" xmlns:xlink="http://www.w3.org/1999/xlink" width="447" height="418" viewBox="0 0 447 418">
    <defs>
        <path id="a" d="M20.576.187H.674v19.901h19.902V.187z"/>
        <path id="c" d="M0 387h421V0H0z"/>
    </defs>
    <g fill="none" fill-rule="evenodd">
        <circle cx="165.974" cy="251.974" r="165.974" fill="#F8F8F8"/>
        <g transform="translate(26)">
            <path fill="#EEFAE3" d="M90 312.022s2.39-.309 2.939 1.37c.548 1.679-2.77 1.608-2.77 1.608L90 312.022z"/>
            <path fill="#070D2F" d="M55.017 297L71.3 307.667l19.439 3.624L91 316l-19.783-.787L52 307.776z"/>
            <path fill="#00BBE8" d="M172.5 33.868a9.368 9.368 0 0 1-9.368-9.368 9.367 9.367 0 0 1 9.368-9.368 9.368 9.368 0 1 1 0 18.736zm16.5-6.602v-5.532h-2.194a14.505 14.505 0 0 0-2.23-5.398l1.547-1.547-3.912-3.912-1.546 1.548a14.49 14.49 0 0 0-5.399-2.231V8h-5.532v2.194a14.49 14.49 0 0 0-5.399 2.23l-1.546-1.547-3.912 3.912 1.548 1.547a14.505 14.505 0 0 0-2.231 5.398H156v5.532h2.194a14.51 14.51 0 0 0 2.23 5.399l-1.547 1.547 3.912 3.91 1.546-1.547a14.51 14.51 0 0 0 5.399 2.231V41h5.532v-2.194a14.51 14.51 0 0 0 5.399-2.23l1.546 1.547 3.912-3.91-1.548-1.548a14.51 14.51 0 0 0 2.231-5.399H189z"/>
            <path fill="#00BBE8" d="M173 23a2 2 0 1 0-.002 3.998A2 2 0 0 0 173 23"/>
            <g transform="translate(135)">
                <mask id="b" fill="#fff">
                    <use xlink:href="#a"/>
                </mask>
                <path fill="#00BBE8" d="M10.624 15.787a5.65 5.65 0 1 1 0-11.299 5.65 5.65 0 0 1 0 11.299zm9.952-3.982V8.47h-1.323a8.76 8.76 0 0 0-1.345-3.257l.933-.933-2.359-2.359-.933.935a8.724 8.724 0 0 0-3.255-1.346V.186H8.956V1.51a8.724 8.724 0 0 0-3.255 1.346l-.933-.935-2.36 2.359.934.933A8.74 8.74 0 0 0 1.997 8.47H.674v3.335h1.323a8.733 8.733 0 0 0 1.345 3.256l-.933.934 2.359 2.359.933-.934a8.763 8.763 0 0 0 3.255 1.345v1.323h3.338v-1.323a8.763 8.763 0 0 0 3.255-1.345l.933.934 2.36-2.36-.934-.933a8.752 8.752 0 0 0 1.345-3.256h1.323z" mask="url(#b)"/>
            </g>
            <path fill="#00BBE8" d="M145.5 9a1.5 1.5 0 1 0 0 3 1.5 1.5 0 0 0 0-3M143 54.083a9.083 9.083 0 1 1 0-18.167 9.084 9.084 0 1 1 0 18.167zm16-6.401v-5.365h-2.128a14.066 14.066 0 0 0-2.163-5.234l1.502-1.5-3.793-3.794-1.501 1.502a14.034 14.034 0 0 0-5.235-2.163V29h-5.364v2.128a14.026 14.026 0 0 0-5.235 2.163l-1.5-1.502-3.794 3.793 1.502 1.501a14.066 14.066 0 0 0-2.163 5.234H127v5.365h2.128a14.072 14.072 0 0 0 2.163 5.235l-1.502 1.5 3.793 3.792 1.501-1.5a14.064 14.064 0 0 0 5.235 2.163V61h5.364v-2.128a14.072 14.072 0 0 0 5.235-2.163l1.5 1.5 3.794-3.792-1.502-1.5a14.072 14.072 0 0 0 2.163-5.235H159z"/>
            <path fill="#00BBE8" d="M143 43a2 2 0 1 0 0 4 2 2 0 0 0 0-4M305.535 179.981c4.705-2.19 10.295-.15 12.484 4.554 2.19 4.705.151 10.295-4.554 12.484a9.395 9.395 0 0 1-12.484-4.553c-2.19-4.706-.151-10.296 4.554-12.485zm-12.211 12.988l2.34 5.03 1.997-.928a14.52 14.52 0 0 0 4.312 3.965l-.752 2.063 5.213 1.901.752-2.062c1.915.308 3.903.232 5.854-.257l.929 1.995 5.03-2.34-.928-1.997a14.523 14.523 0 0 0 3.965-4.313l2.062.753 1.902-5.213-2.063-.752a14.554 14.554 0 0 0-.256-5.854l1.995-.929-2.34-5.03-1.996.928a14.557 14.557 0 0 0-4.314-3.965l.752-2.062-5.212-1.902-.752 2.063a14.553 14.553 0 0 0-5.854.256l-.929-1.995-5.03 2.342.928 1.995a14.523 14.523 0 0 0-3.965 4.313l-2.063-.753-1.901 5.213 2.063.752a14.493 14.493 0 0 0 .257 5.854l-1.996.929z"/>
            <path fill="#00BBE8" d="M309.844 189.813a1.999 1.999 0 1 0-1.687-3.625 1.999 1.999 0 0 0 1.687 3.625M338.217 185.595a5.41 5.41 0 1 1 4.566 9.81 5.41 5.41 0 1 1-4.566-9.81zm-7.03 7.478l1.348 2.897 1.148-.535a8.396 8.396 0 0 0 2.484 2.282l-.433 1.188 3.001 1.095.434-1.188a8.361 8.361 0 0 0 3.368-.147l.536 1.15 2.895-1.349-.534-1.15a8.368 8.368 0 0 0 2.284-2.482l1.186.432 1.096-3-1.189-.434a8.348 8.348 0 0 0-.146-3.37l1.148-.535-1.348-2.896-1.148.534a8.366 8.366 0 0 0-2.484-2.282l.433-1.188-3.001-1.095-.434 1.188a8.368 8.368 0 0 0-3.37.147l-.534-1.148-2.897 1.347.536 1.15a8.371 8.371 0 0 0-2.284 2.483l-1.186-.433-1.096 3 1.189.434a8.347 8.347 0 0 0 .146 3.37l-1.148.535z"/>
            <path fill="#00BBE8" d="M341.133 191.86a1.5 1.5 0 1 0-1.265-2.719 1.5 1.5 0 0 0 1.265 2.719M323.155 148.739a9.113 9.113 0 1 1 7.69 16.525 9.113 9.113 0 0 1-7.69-16.525zm-11.84 12.594l2.27 4.879 1.934-.9a14.102 14.102 0 0 0 4.184 3.844l-.73 2.001 5.055 1.843.728-2c1.857.3 3.786.226 5.676-.249l.902 1.936 4.878-2.27-.9-1.936a14.113 14.113 0 0 0 3.845-4.183l1.999.73 1.844-5.054-2-.73c.3-1.857.225-3.786-.25-5.677l1.937-.9-2.271-4.879-1.936.902a14.096 14.096 0 0 0-4.182-3.846l.73-2-5.055-1.844-.73 2a14.096 14.096 0 0 0-5.676.249l-.9-1.936-4.878 2.271.9 1.935a14.096 14.096 0 0 0-3.844 4.183l-2-.73-1.845 5.056 2 .729a14.117 14.117 0 0 0 .25 5.676l-1.936.9z"/>
            <path fill="#00BBE8" d="M327.843 158.813a1.999 1.999 0 1 0-1.687-3.627 1.999 1.999 0 0 0 1.687 3.627M95.504 220.56a5.439 5.439 0 1 1 3.991-10.118 5.439 5.439 0 0 1-3.99 10.117zm10.319-.051l1.177-2.987-1.184-.468a8.417 8.417 0 0 0-.055-3.39l1.166-.507-1.28-2.946-1.165.507a8.404 8.404 0 0 0-2.44-2.354l.467-1.186L99.522 206l-.468 1.185a8.411 8.411 0 0 0-3.39.055l-.507-1.166-2.946 1.28.508 1.165a8.417 8.417 0 0 0-2.355 2.44l-1.186-.468L88 213.478l1.186.468a8.417 8.417 0 0 0 .054 3.39l-1.166.507 1.28 2.946 1.165-.507a8.432 8.432 0 0 0 2.44 2.355l-.468 1.185L95.48 225l.467-1.185a8.437 8.437 0 0 0 3.39-.054l.506 1.165 2.946-1.278-.507-1.166a8.421 8.421 0 0 0 2.355-2.44l1.186.467z"/>
            <path fill="#00BBE8" d="M98.05 214.105a1.5 1.5 0 1 0-1.1 2.79 1.5 1.5 0 0 0 1.1-2.79M79.639 251.52a9.16 9.16 0 1 1 6.723-17.04 9.16 9.16 0 1 1-6.723 17.04zm17.376-.084L99 246.405l-1.995-.788c.362-1.926.32-3.865-.092-5.71l1.963-.853-2.155-4.961-1.962.852a14.177 14.177 0 0 0-4.11-3.964l.787-1.996-5.03-1.985-.788 1.996a14.173 14.173 0 0 0-5.711.09l-.851-1.962-4.962 2.155.852 1.962a14.196 14.196 0 0 0-3.965 4.11l-1.995-.787L67 239.595l1.996.787a14.188 14.188 0 0 0 .09 5.71l-1.96.854 2.153 4.96 1.962-.852a14.16 14.16 0 0 0 4.112 3.965l-.79 1.996L79.597 259l.787-1.996c1.926.362 3.866.32 5.71-.092l.853 1.963 4.961-2.154-.853-1.963a14.156 14.156 0 0 0 3.967-4.11l1.994.788z"/>
            <path fill="#00BBE8" d="M83.733 241.14a1.998 1.998 0 1 0-1.467 3.72 2 2 0 0 0 1.467-3.72"/>
            <path fill="#2074B7" d="M352 354.5c0 3.037-65.142 5.5-145.5 5.5S61 357.537 61 354.5s65.142-5.5 145.5-5.5 145.5 2.463 145.5 5.5"/>
            <path fill="#EEFAE3" d="M315.98 288.006s-2.48-.191-2.938 1.513c-.456 1.704 2.958 1.47 2.958 1.47l-.02-2.983z"/>
            <path fill="#070D2F" d="M349.01 282l-17.1 4.95H315v4.033L332.005 293 353 290.983z"/>
            <path fill="#16295E" d="M213.844 89.878c-9.285-2.584-15.46 7.105-24.47 3.69V48H64v125h45.703c3.428-8.984-6.29-15.141-3.7-24.398 2.526-9.023 12.227-11.857 20.684-12.122a44.682 44.682 0 0 0-1.345-.025h2.69c-.444 0-.894.012-1.345.025 8.457.265 18.158 3.099 20.683 12.122 2.59 9.257-7.127 15.414-3.702 24.398h45.706v-45.569c9.01-3.414 15.185 6.274 24.47 3.69 9.048-2.518 11.893-12.19 12.156-20.62-.263-8.432-3.108-18.106-12.156-20.623"/>
            <mask id="d" fill="#fff">
                <use xlink:href="#c"/>
            </mask>
            <path fill="#2074B7" d="M106 387h47v-2h-47zM347 369h74v-2h-74z" mask="url(#d)"/>
            <path fill="#16295E" d="M331 228.628h-45.57c-3.413-9.01 6.275-15.186 3.692-24.47-2.517-9.05-12.192-11.891-20.623-12.158-8.43.267-18.102 3.108-20.62 12.157-2.584 9.285 7.105 15.462 3.689 24.471H206v45.704c8.984 3.424 15.141-6.293 24.4-3.7 9.021 2.524 11.854 12.226 12.12 20.682.012-.45.025-.902.025-1.344v2.688c0-.442-.013-.893-.025-1.344-.266 8.456-3.099 18.156-12.12 20.682-9.259 2.592-15.416-7.126-24.4-3.7V354h125V228.628z" mask="url(#d)"/>
            <path fill="#00BBE8" d="M182 69.705l6.711 30.733 3.024 13.85c9.52 1.422 13.473-9.372 23.083-8.823 9.364.536 14.203 9.394 16.263 17.585a45.461 45.461 0 0 0-.26-1.316l.572 2.623c-.094-.431-.203-.868-.312-1.307 1.541 8.306.836 18.376-7.453 22.766-8.505 4.506-16.599-3.66-24.659 1.602l3.024 13.848 6.71 30.734 30.737-6.711 13.847-3.024c1.422-9.518-9.372-13.471-8.823-23.082.537-9.364 9.393-14.204 17.585-16.262-.442.08-.883.167-1.316.26l2.625-.572c-.432.093-.87.2-1.309.312 8.308-1.544 18.375-.837 22.766 7.451 4.506 8.506-3.658 16.6 1.601 24.658l13.848-3.023 30.736-6.71L304.296 43 182 69.705z" mask="url(#d)"/>
            <path fill="#DFF5F9" d="M230.844 270.63c-9.285-2.592-15.46 7.125-24.47 3.701v-45.704h-45.705c-3.427-9.01 6.293-15.185 3.701-24.47-2.524-9.05-12.227-11.89-20.684-12.157-8.455.267-18.156 3.108-20.682 12.157-2.592 9.285 7.127 15.46 3.7 24.47H81V354h125.373v-45.705c9.01-3.426 15.186 6.29 24.47 3.7 9.05-2.525 11.894-12.226 12.157-20.683-.263-8.455-3.108-18.157-12.156-20.681" mask="url(#d)"/>
            <path fill="#070D2F" d="M211.244 139.09s2.294-1.127 1.638-4.09c0 0-2.144 2.539-7.184 3.151-5.041.611-6.45 7.893-2.124 10.996 4.326 3.104 5.91-3.262 5.91-3.262l.778-3.768.982-3.027z" mask="url(#d)"/>
            <path fill="#EEFAE3" d="M211.22 139c-3.041.046-2.444 1.693-2.444 1.693l.77 3.41-1.888.645-1.344-1.302c-2.12-.497-1.184 2.115-1.184 2.115l-2.447 2.2-.683 2.182 5.825 5.057 2.215-4.109 4.065-1.216-1.1-4.074 1.995-.523-3.78-6.078z" mask="url(#d)"/>
            <path fill="#070D2F" d="M178.295 226l.737 1.695L183 229l-10-.061.458-2.939zM186.1 188l-1.462 16.795L173 225h5.842l12.219-14.098L199 188.95zM216.295 226l.737 1.695L221 229l-10-.061.02-2.287z" mask="url(#d)"/>
            <path fill="#070D2F" d="M197 192.6l10.626 15.438L210.57 227H217l-1.466-22.599L208.547 186z" mask="url(#d)"/>
            <path fill="#070D2F" d="M208.042 193L186 189.94l8.954-32.86c1.132-4.028 4.037-7.356 7.927-9.08l7.155 7.836.964 10.31L208.042 193z" mask="url(#d)"/>
            <path fill="#FF2C07" d="M207.072 159.397s-.14-1.411.095-3.397l1.887.061s.227 1.531-.095 3.396l.074 1.644s.552 4.942.887 9.056c.336 4.115-.497 17.923-.497 17.923l-2.078 3.92-2.345-3.358s.614-15.574 2.004-26.785l.068-2.46z" mask="url(#d)"/>
            <path fill="#EEFAE3" d="M238 150.342s1.793-.982 2.78.383c.986 1.366-1.67 2.275-1.67 2.275l-1.11-2.658z" mask="url(#d)"/>
            <path fill="#070D2F" d="M202 152.575l18.067.121L238.13 150l1.87 4.448-18.501 4.96-18.57 4.592z" mask="url(#d)"/>
            <path fill="#090647" d="M113 386h2V162h-2zM144 386h2V162h-2z" mask="url(#d)"/>
            <path fill="#090647" d="M113 174h31v-2h-31zM113 190h31v-2h-31zM113 207h31v-2h-31zM113 223h31v-2h-31zM113 240h31v-2h-31zM113 256h31v-2h-31zM113 273h31v-2h-31zM113 289h31v-2h-31zM113 306h31v-2h-31zM113 322h31v-2h-31zM113 339h31v-2h-31zM113 355h31v-2h-31zM113 372h31v-2h-31z" mask="url(#d)"/>
            <path fill="#EEFAE3" d="M121.07 148s-.963 13.548 4.268 29H128s-1.422-21.113-1.009-29h-5.921z" mask="url(#d)"/>
            <path fill="#070D2F" d="M126 177v11.936s4 .701 4-2.528c0-3.23-1.136-9.408-1.136-9.408H126z" mask="url(#d)"/>
            <path fill="#EEFAE3" d="M138.93 148s.963 13.548-4.268 29H132s1.422-21.113 1.009-29h5.921z" mask="url(#d)"/>
            <path fill="#070D2F" d="M134 177v11.936s-4 .701-4-2.528c0-3.23 1.136-9.408 1.136-9.408H134zM126.238 85.014c-4.166.266-5.687 2.46-6.173 6.729-.462 4.037 1.568 6.808 5.48 7.238 0 0 5.76.918 5.442-9.943 0 0-.18-4.314-4.75-4.024" mask="url(#d)"/>
            <path fill="#070D2F" d="M125 88.5a3.5 3.5 0 1 1-7.002-.002A3.5 3.5 0 0 1 125 88.5" mask="url(#d)"/>
            <path fill="#EEFAE3" d="M130.5 86l4.5 6.05-1.287.705L135 94.873l-3.571 2.822.285 2.305H126v-1.74s3.096.188 3.047-4.918c0 0-2.808-4.258 0-3.692 0 0 3.024-1.391 1.452-3.65" mask="url(#d)"/>
            <path fill="#070D2F" d="M123.1 110L105 92.518 106.216 75h3.638l.88 15.437L128 104.919z" mask="url(#d)"/>
            <path fill="#070D2F" d="M136.039 116.068l3.914-12.361-2.787-3.707h-15.333l-2.786 3.707 3.913 12.361L118 135h23zM129 135h-11v19h22v-19z" mask="url(#d)"/>
            <path fill="#EEFAE3" d="M106.03 74s-.372-1.824 1.488-1.99c1.86-.167 1.442 1.99 1.442 1.99h-2.93z" mask="url(#d)"/>
            <path fill="#070D2F" d="M134.902 110L153 92.518 151.785 75h-3.638l-.882 15.437L130 104.919z" mask="url(#d)"/>
            <path fill="#EEFAE3" d="M150.97 74s.371-1.824-1.488-1.99c-1.86-.167-1.442 1.99-1.442 1.99h2.93z" mask="url(#d)"/>
            <path fill="#2074B7" d="M0 369h74v-2H0z" mask="url(#d)"/>
            <path fill="#070D2F" d="M81.55 295.346s2.527.978 4.45-1.724c0 0-3.558.183-7.61-3.34-4.052-3.522-10.914.734-10.358 6.432.554 5.699 6.8 2.254 6.8 2.254l3.585-2.164 3.133-1.458z" mask="url(#d)"/>
            <path fill="#EEFAE3" d="M81 295.465c-2.181-2.447-3.063-.722-3.063-.722l-2.153 3.182-1.84-1.055.08-2.074c-1.1-2.1-2.507.62-2.507.62l-3.464-.347-2.206 1.08L65 305l5.549-2.404L74.377 305l2.661-3.128 1.822 1.236 2.14-7.643z" mask="url(#d)"/>
            <path fill="#070D2F" d="M35.605 327L20 308.368l34.155-14.25c4.17-1.7 8.876-1.45 12.845.677l-2.103 11.152-8.192 7.583-21.1 13.47z" mask="url(#d)"/>
            <path fill="#FF2C07" d="M60.562 307.351s.393-1.466 1.417-3.351l2.021.83s-.346 1.62-1.416 3.351l-.556 1.672s-1.314 5.157-2.543 9.4c-1.228 4.243-7.475 17.683-7.475 17.683L48.243 340 47 335.692s6.692-15.293 12.536-25.914l1.026-2.427z" mask="url(#d)"/>
            <path fill="#070D2F" d="M13.823 364l.811 2.26L19 368l-11-.08.02-3.05zM47.823 364l.811 2.26L53 368l-11-.08.02-3.05z" mask="url(#d)"/>
            <path fill="#070D2F" d="M29 319.533l16.945 18.991L41.631 365h6.833L57 334.975 35.917 303z" mask="url(#d)"/>
            <path fill="#EEFAE3" d="M84.258 331s2.05.856 1.702 2.96c-.348 2.102-2.96.368-2.96.368L84.258 331z" mask="url(#d)"/>
            <path fill="#070D2F" d="M60.564 301l9.233 16.765L85 329.713 83.065 334l-16.805-9.593L53 309.183zM32.678 312.957l.077-.053-.43-2.814s-2.851-3.238-8.272-1.653c-5.42 1.585-5.025 7.1-5.025 7.1l6.275 29.098L7 364.882 12.428 367 37 348.093l-4.322-35.136zM333.354 281.65s-2.632.748-4.354-2.026c0 0 3.578.46 7.954-2.635 4.376-3.095 10.961 1.577 9.94 7.06-1.02 5.482-7.05 1.646-7.05 1.646l-3.446-2.383-3.044-1.662z" mask="url(#d)"/>
            <path fill="#EEFAE3" d="M333 282.075c2.355-2.131 3.098-.436 3.098-.436l1.894 3.168 1.91-.847.078-1.958c1.255-1.892 2.443.785 2.443.785l3.469-.052 2.108 1.193-.683 8.072-4.482-2.374-3.989 1.959-2.403-3.16-1.904 1.02-1.539-7.37z" mask="url(#d)"/>
            <path fill="#070D2F" d="M377.239 323L393 305.451 360.156 283.6a15.608 15.608 0 0 0-12.898-2.004L347 292.88l6.538 9.076 23.7 21.044z" mask="url(#d)"/>
            <path fill="#FF2C07" d="M350.622 296.574s.017-1.505-.456-3.574l-2.158.268s-.104 1.64.456 3.573l.083 1.743s-.126 5.273-.088 9.65c.037 4.377 2.41 18.855 2.41 18.855l2.785 3.911 2.346-3.796s-2.3-16.365-5.047-28.041l-.331-2.589z" mask="url(#d)"/>
            <path fill="#070D2F" d="M399.176 364l-.81 2.26L394 368l11-.08-.021-3.05z" mask="url(#d)"/>
            <path fill="#070D2F" d="M393.286 311l4.863 32.858L404 364.916 398.643 367l-9.043-21.912L379 311zM369.177 364l-.812 2.26L364 368l11-.08-.02-3.05z" mask="url(#d)"/>
            <path fill="#070D2F" d="M390 320.887l-10.373 13.112L374.985 365H368l1.002-35.002L380.826 303z" mask="url(#d)"/>
            <path fill="#EEFAE3" d="M317.93 302.004s-2.467-.161-2.893 1.548c-.424 1.708 2.963 1.431 2.963 1.431l-.07-2.979z" mask="url(#d)"/>
            <path fill="#070D2F" d="M350.665 289l-16.17 9.296L317 301.3l.073 4.699 19.574-1.577L356 300.081zM392.495 305.974s1.61.433 2.472 8.884c.795 7.809-12.967-1.398-12.967-1.398v-5.706l5.004-2.754 5.49.974z" mask="url(#d)"/>
        </g>
    </g>
</svg>
