<svg xmlns="http://www.w3.org/2000/svg" xmlns:xlink="http://www.w3.org/1999/xlink" width="939" height="4" viewBox="0 0 939 4">
    <defs>
        <path id="a" d="M.656.287H4.63V4H.656V.287z"/>
        <path id="c" d="M.161.287H3.87V4H.161V.287z"/>
        <path id="e" d="M.195.287h3.708V4H.195V.287z"/>
        <path id="g" d="M.262.287H3.97V4H.262z"/>
        <path id="i" d="M.62.287h3.973V4H.62z"/>
        <path id="k" d="M.229.287h3.707V4H.23V.287z"/>
        <path id="m" d="M.584.287h3.972V4H.584z"/>
        <path id="o" d="M.548.287h3.973V4H.548z"/>
        <path id="q" d="M.216.287h3.707V4H.216V.287z"/>
        <path id="s" d="M.57.287h3.972V4H.57V.287z"/>
        <path id="u" d="M.182.287h3.707V4H.182V.287z"/>
        <path id="w" d="M.534.287h3.972V4H.534V.287z"/>
        <path id="y" d="M.606.287h3.973V4H.606z"/>
        <path id="A" d="M.34.287H4.31V4H.34V.287z"/>
        <path id="C" d="M.148.287h3.708V4H.148z"/>
        <path id="E" d="M.317.287H4.29V4H.317z"/>
        <path id="G" d="M.25.287h3.707V4H.249z"/>
        <path id="I" d="M.282.287H3.99V4H.282V.287z"/>
        <path id="K" d="M.642.287h3.972V4H.642V.287z"/>
        <path id="M" d="M.678.287H4.65V4H.678z"/>
        <path id="O" d="M.39.287h3.972V4H.389z"/>
        <path id="Q" d="M.014.287H3.72V4H.014V.287z"/>
        <path id="S" d="M.353.287h3.973V4H.354z"/>
        <path id="U" d="M.498.287H4.47V4H.498z"/>
        <path id="W" d="M.047.287h3.708V4H.047z"/>
        <path id="Y" d="M.693.287h3.972V4H.692z"/>
        <path id="aa" d="M.114.287h3.708V4H.114z"/>
        <path id="ac" d="M.462.287h3.972V4H.462z"/>
        <path id="ae" d="M.08.287H3.79V4H.08z"/>
        <path id="ag" d="M0 .287h3.707V4H0z"/>
        <path id="ai" d="M.425.287h3.973V4H.425V.287z"/>
        <path id="ak" d="M.656.287H4.63V4H.656V.287z"/>
        <path id="am" d="M.262.287H3.97V4H.262z"/>
        <path id="ao" d="M.62.287h3.973V4H.62z"/>
        <path id="aq" d="M.216.287h3.707V4H.216V.287z"/>
        <path id="as" d="M.57.287h3.972V4H.57V.287z"/>
        <path id="au" d="M.182.287h3.707V4H.182V.287z"/>
        <path id="aw" d="M.534.287h3.972V4H.534V.287z"/>
        <path id="ay" d="M.606.287h3.973V4H.606z"/>
        <path id="aA" d="M.34.287H4.31V4H.34V.287z"/>
        <path id="aC" d="M.148.287h3.708V4H.148z"/>
        <path id="aE" d="M.317.287H4.29V4H.317z"/>
        <path id="aG" d="M.25.287h3.707V4H.249z"/>
        <path id="aI" d="M.282.287H3.99V4H.282V.287z"/>
        <path id="aK" d="M.642.287h3.972V4H.642V.287z"/>
        <path id="aM" d="M.678.287H4.65V4H.678z"/>
        <path id="aO" d="M.39.287h3.972V4H.389z"/>
        <path id="aQ" d="M.014.287H3.72V4H.014V.287z"/>
        <path id="aS" d="M.353.287h3.973V4H.354z"/>
        <path id="aU" d="M.498.287H4.47V4H.498z"/>
        <path id="aW" d="M.047.287h3.708V4H.047z"/>
        <path id="aY" d="M.693.287h3.972V4H.692z"/>
        <path id="ba" d="M.114.287h3.708V4H.114z"/>
        <path id="bc" d="M.462.287h3.972V4H.462z"/>
        <path id="be" d="M.08.287H3.79V4H.08z"/>
        <path id="bg" d="M0 .287h3.707V4H0z"/>
        <path id="bi" d="M.425.287h3.973V4H.425V.287z"/>
    </defs>
    <g fill="none" fill-rule="evenodd">
        <g transform="translate(377)">
            <mask id="b" fill="#fff">
                <use xlink:href="#a"/>
            </mask>
            <path fill="#15BAE6" d="M4.63 2.144C4.63 1.118 3.74.287 2.642.287S.656 1.118.656 2.144C.656 3.169 1.545 4 2.643 4S4.63 3.17 4.63 2.144" mask="url(#b)"/>
        </g>
        <g transform="translate(492)">
            <mask id="d" fill="#fff">
                <use xlink:href="#c"/>
            </mask>
            <path fill="#15BAE6" d="M3.87 2.144a1.854 1.854 0 1 0-3.709 0 1.855 1.855 0 1 0 3.708 0" mask="url(#d)"/>
        </g>
        <g transform="translate(459)">
            <mask id="f" fill="#fff">
                <use xlink:href="#e"/>
            </mask>
            <path fill="#15BAE6" d="M3.903 2.144a1.854 1.854 0 1 0-3.708 0 1.855 1.855 0 1 0 3.708 0" mask="url(#f)"/>
        </g>
        <g transform="translate(394)">
            <mask id="h" fill="#fff">
                <use xlink:href="#g"/>
            </mask>
            <path fill="#15BAE6" d="M3.97 2.144a1.854 1.854 0 1 0-3.708 0 1.855 1.855 0 1 0 3.708 0" mask="url(#h)"/>
        </g>
        <g transform="translate(410)">
            <mask id="j" fill="#fff">
                <use xlink:href="#i"/>
            </mask>
            <path fill="#15BAE6" d="M4.593 2.144c0-1.026-.888-1.857-1.986-1.857C1.508.287.62 1.118.62 2.144.62 3.169 1.508 4 2.607 4c1.098 0 1.986-.83 1.986-1.856" mask="url(#j)"/>
        </g>
        <g transform="translate(427)">
            <mask id="l" fill="#fff">
                <use xlink:href="#k"/>
            </mask>
            <path fill="#15BAE6" d="M3.936 2.144a1.854 1.854 0 1 0-3.707 0 1.854 1.854 0 1 0 3.707 0" mask="url(#l)"/>
        </g>
        <g transform="translate(443)">
            <mask id="n" fill="#fff">
                <use xlink:href="#m"/>
            </mask>
            <path fill="#15BAE6" d="M4.556 2.144c0-1.026-.887-1.857-1.985-1.857S.584 1.118.584 2.144C.584 3.169 1.473 4 2.571 4s1.985-.83 1.985-1.856" mask="url(#n)"/>
        </g>
        <g transform="translate(475)">
            <mask id="p" fill="#fff">
                <use xlink:href="#o"/>
            </mask>
            <path fill="#15BAE6" d="M4.52 2.144c0-1.026-.887-1.857-1.985-1.857S.548 1.118.548 2.144C.548 3.169 1.437 4 2.535 4s1.986-.83 1.986-1.856" mask="url(#p)"/>
        </g>
        <g transform="translate(114)">
            <mask id="r" fill="#fff">
                <use xlink:href="#q"/>
            </mask>
            <path fill="#15BAE6" d="M3.923 2.144a1.854 1.854 0 1 0-3.707 0 1.854 1.854 0 1 0 3.707 0" mask="url(#r)"/>
        </g>
        <g transform="translate(130)">
            <mask id="t" fill="#fff">
                <use xlink:href="#s"/>
            </mask>
            <path fill="#15BAE6" d="M4.542 2.144c0-1.026-.888-1.857-1.985-1.857-1.1 0-1.987.831-1.987 1.857C.57 3.169 1.458 4 2.557 4c1.097 0 1.985-.83 1.985-1.856" mask="url(#t)"/>
        </g>
        <g transform="translate(147)">
            <mask id="v" fill="#fff">
                <use xlink:href="#u"/>
            </mask>
            <path fill="#15BAE6" d="M3.89 2.144a1.854 1.854 0 1 0-3.708 0 1.854 1.854 0 1 0 3.707 0" mask="url(#v)"/>
        </g>
        <g transform="translate(163)">
            <mask id="x" fill="#fff">
                <use xlink:href="#w"/>
            </mask>
            <path fill="#15BAE6" d="M4.506 2.144c0-1.026-.888-1.857-1.986-1.857-1.098 0-1.986.831-1.986 1.857C.534 3.169 1.422 4 2.52 4c1.098 0 1.986-.83 1.986-1.856" mask="url(#x)"/>
        </g>
        <g transform="translate(98)">
            <mask id="z" fill="#fff">
                <use xlink:href="#y"/>
            </mask>
            <path fill="#15BAE6" d="M4.579 2.144c0-1.026-.888-1.857-1.987-1.857-1.098 0-1.986.831-1.986 1.857C.606 3.169 1.494 4 2.592 4c1.099 0 1.986-.83 1.986-1.856" mask="url(#z)"/>
        </g>
        <g transform="translate(16)">
            <mask id="B" fill="#fff">
                <use xlink:href="#A"/>
            </mask>
            <path fill="#15BAE6" d="M4.311 2.144c0-1.026-.887-1.857-1.985-1.857-1.099 0-1.987.831-1.987 1.857C.34 3.169 1.227 4 2.326 4 3.424 4 4.31 3.17 4.31 2.144" mask="url(#B)"/>
        </g>
        <g transform="translate(180)">
            <mask id="D" fill="#fff">
                <use xlink:href="#C"/>
            </mask>
            <path fill="#15BAE6" d="M3.856 2.144a1.854 1.854 0 1 0-3.708 0 1.854 1.854 0 1 0 3.708 0" mask="url(#D)"/>
        </g>
        <g transform="translate(361)">
            <mask id="F" fill="#fff">
                <use xlink:href="#E"/>
            </mask>
            <path fill="#15BAE6" d="M4.29 2.144c0-1.026-.888-1.857-1.986-1.857-1.098 0-1.987.831-1.987 1.857C.317 3.169 1.206 4 2.304 4S4.29 3.17 4.29 2.144" mask="url(#F)"/>
        </g>
        <g transform="translate(82)">
            <mask id="H" fill="#fff">
                <use xlink:href="#G"/>
            </mask>
            <path fill="#15BAE6" d="M3.957 2.144a1.854 1.854 0 1 0-3.708 0 1.854 1.854 0 1 0 3.708 0" mask="url(#H)"/>
        </g>
        <g transform="translate(49)">
            <mask id="J" fill="#fff">
                <use xlink:href="#I"/>
            </mask>
            <path fill="#15BAE6" d="M3.99 2.144a1.854 1.854 0 1 0-3.708 0 1.855 1.855 0 1 0 3.708 0" mask="url(#J)"/>
        </g>
        <g transform="translate(65)">
            <mask id="L" fill="#fff">
                <use xlink:href="#K"/>
            </mask>
            <path fill="#15BAE6" d="M4.614 2.144c0-1.026-.887-1.857-1.985-1.857C1.53.287.642 1.118.642 2.144.642 3.169 1.53 4 2.63 4c1.098 0 1.985-.83 1.985-1.856" mask="url(#L)"/>
        </g>
        <g transform="translate(32)">
            <mask id="N" fill="#fff">
                <use xlink:href="#M"/>
            </mask>
            <path fill="#15BAE6" d="M4.65 2.144c0-1.026-.888-1.857-1.985-1.857-1.099 0-1.987.831-1.987 1.857C.678 3.169 1.566 4 2.665 4 3.763 4 4.65 3.17 4.65 2.144" mask="url(#N)"/>
        </g>
        <g transform="translate(295)">
            <mask id="P" fill="#fff">
                <use xlink:href="#O"/>
            </mask>
            <path fill="#15BAE6" d="M4.362 2.144c0-1.026-.888-1.857-1.986-1.857C1.278.287.39 1.118.39 2.144.39 3.169 1.278 4 2.376 4s1.986-.83 1.986-1.856" mask="url(#P)"/>
        </g>
        <g transform="translate(311)">
            <mask id="R" fill="#fff">
                <use xlink:href="#Q"/>
            </mask>
            <path fill="#15BAE6" d="M3.72 2.144a1.854 1.854 0 1 0-3.706 0 1.854 1.854 0 1 0 3.707 0" mask="url(#R)"/>
        </g>
        <g transform="translate(328)">
            <mask id="T" fill="#fff">
                <use xlink:href="#S"/>
            </mask>
            <path fill="#15BAE6" d="M4.326 2.144c0-1.026-.887-1.857-1.986-1.857S.354 1.118.354 2.144C.353 3.169 1.24 4 2.34 4s1.986-.83 1.986-1.856" mask="url(#T)"/>
        </g>
        <g transform="translate(196)">
            <mask id="V" fill="#fff">
                <use xlink:href="#U"/>
            </mask>
            <path fill="#15BAE6" d="M4.47 2.144c0-1.026-.888-1.857-1.986-1.857-1.098 0-1.986.831-1.986 1.857C.498 3.169 1.386 4 2.484 4 3.582 4 4.47 3.17 4.47 2.144" mask="url(#V)"/>
        </g>
        <g transform="translate(278)">
            <mask id="X" fill="#fff">
                <use xlink:href="#W"/>
            </mask>
            <path fill="#15BAE6" d="M3.755 2.144a1.854 1.854 0 1 0-3.708 0 1.855 1.855 0 1 0 3.708 0" mask="url(#X)"/>
        </g>
        <g transform="translate(344)">
            <mask id="Z" fill="#fff">
                <use xlink:href="#Y"/>
            </mask>
            <path fill="#15BAE6" d="M4.665 2.144c0-1.026-.888-1.857-1.986-1.857C1.58.287.693 1.118.693 2.144.692 3.169 1.58 4 2.678 4c1.099 0 1.986-.83 1.986-1.856" mask="url(#Z)"/>
        </g>
        <g transform="translate(213)">
            <mask id="ab" fill="#fff">
                <use xlink:href="#aa"/>
            </mask>
            <path fill="#15BAE6" d="M3.822 2.144a1.854 1.854 0 1 0-3.708 0 1.855 1.855 0 1 0 3.708 0" mask="url(#ab)"/>
        </g>
        <g transform="translate(229)">
            <mask id="ad" fill="#fff">
                <use xlink:href="#ac"/>
            </mask>
            <path fill="#15BAE6" d="M4.434 2.144c0-1.026-.888-1.857-1.986-1.857C1.35.287.462 1.118.462 2.144.462 3.169 1.35 4 2.448 4c1.098 0 1.986-.83 1.986-1.856" mask="url(#ad)"/>
        </g>
        <g transform="translate(246)">
            <mask id="af" fill="#fff">
                <use xlink:href="#ae"/>
            </mask>
            <path fill="#15BAE6" d="M3.789 2.144a1.854 1.854 0 1 0-3.708 0 1.854 1.854 0 1 0 3.708 0" mask="url(#af)"/>
        </g>
        <g>
            <mask id="ah" fill="#fff">
                <use xlink:href="#ag"/>
            </mask>
            <path fill="#15BAE6" d="M3.707 2.144a1.854 1.854 0 1 0-3.707 0 1.854 1.854 0 1 0 3.707 0" mask="url(#ah)"/>
        </g>
        <g transform="translate(263)">
            <mask id="aj" fill="#fff">
                <use xlink:href="#ai"/>
            </mask>
            <path fill="#15BAE6" d="M4.398 2.144c0-1.026-.888-1.857-1.986-1.857-1.098 0-1.987.831-1.987 1.857C.425 3.169 1.314 4 2.412 4s1.986-.83 1.986-1.856" mask="url(#aj)"/>
        </g>
        <g>
            <g transform="translate(901)">
                <mask id="al" fill="#fff">
                    <use xlink:href="#ak"/>
                </mask>
                <path fill="#15BAE6" d="M4.63 2.144C4.63 1.118 3.74.287 2.642.287S.656 1.118.656 2.144C.656 3.169 1.545 4 2.643 4S4.63 3.17 4.63 2.144" mask="url(#al)"/>
            </g>
            <g transform="translate(918)">
                <mask id="an" fill="#fff">
                    <use xlink:href="#am"/>
                </mask>
                <path fill="#15BAE6" d="M3.97 2.144a1.854 1.854 0 1 0-3.708 0 1.855 1.855 0 1 0 3.708 0" mask="url(#an)"/>
            </g>
            <g transform="translate(934)">
                <mask id="ap" fill="#fff">
                    <use xlink:href="#ao"/>
                </mask>
                <path fill="#15BAE6" d="M4.593 2.144c0-1.026-.888-1.857-1.986-1.857C1.508.287.62 1.118.62 2.144.62 3.169 1.508 4 2.607 4c1.098 0 1.986-.83 1.986-1.856" mask="url(#ap)"/>
            </g>
            <g transform="translate(638)">
                <mask id="ar" fill="#fff">
                    <use xlink:href="#aq"/>
                </mask>
                <path fill="#15BAE6" d="M3.923 2.144a1.854 1.854 0 1 0-3.707 0 1.854 1.854 0 1 0 3.707 0" mask="url(#ar)"/>
            </g>
            <g transform="translate(654)">
                <mask id="at" fill="#fff">
                    <use xlink:href="#as"/>
                </mask>
                <path fill="#15BAE6" d="M4.542 2.144c0-1.026-.888-1.857-1.985-1.857-1.1 0-1.987.831-1.987 1.857C.57 3.169 1.458 4 2.557 4c1.097 0 1.985-.83 1.985-1.856" mask="url(#at)"/>
            </g>
            <g transform="translate(671)">
                <mask id="av" fill="#fff">
                    <use xlink:href="#au"/>
                </mask>
                <path fill="#15BAE6" d="M3.89 2.144a1.854 1.854 0 1 0-3.708 0 1.854 1.854 0 1 0 3.707 0" mask="url(#av)"/>
            </g>
            <g transform="translate(687)">
                <mask id="ax" fill="#fff">
                    <use xlink:href="#aw"/>
                </mask>
                <path fill="#15BAE6" d="M4.506 2.144c0-1.026-.888-1.857-1.986-1.857-1.098 0-1.986.831-1.986 1.857C.534 3.169 1.422 4 2.52 4c1.098 0 1.986-.83 1.986-1.856" mask="url(#ax)"/>
            </g>
            <g transform="translate(622)">
                <mask id="az" fill="#fff">
                    <use xlink:href="#ay"/>
                </mask>
                <path fill="#15BAE6" d="M4.579 2.144c0-1.026-.888-1.857-1.987-1.857-1.098 0-1.986.831-1.986 1.857C.606 3.169 1.494 4 2.592 4c1.099 0 1.986-.83 1.986-1.856" mask="url(#az)"/>
            </g>
            <g transform="translate(540)">
                <mask id="aB" fill="#fff">
                    <use xlink:href="#aA"/>
                </mask>
                <path fill="#15BAE6" d="M4.311 2.144c0-1.026-.887-1.857-1.985-1.857-1.099 0-1.987.831-1.987 1.857C.34 3.169 1.227 4 2.326 4 3.424 4 4.31 3.17 4.31 2.144" mask="url(#aB)"/>
            </g>
            <g transform="translate(704)">
                <mask id="aD" fill="#fff">
                    <use xlink:href="#aC"/>
                </mask>
                <path fill="#15BAE6" d="M3.856 2.144a1.854 1.854 0 1 0-3.708 0 1.854 1.854 0 1 0 3.708 0" mask="url(#aD)"/>
            </g>
            <g transform="translate(885)">
                <mask id="aF" fill="#fff">
                    <use xlink:href="#aE"/>
                </mask>
                <path fill="#15BAE6" d="M4.29 2.144c0-1.026-.888-1.857-1.986-1.857-1.098 0-1.987.831-1.987 1.857C.317 3.169 1.206 4 2.304 4S4.29 3.17 4.29 2.144" mask="url(#aF)"/>
            </g>
            <g transform="translate(606)">
                <mask id="aH" fill="#fff">
                    <use xlink:href="#aG"/>
                </mask>
                <path fill="#15BAE6" d="M3.957 2.144a1.854 1.854 0 1 0-3.708 0 1.854 1.854 0 1 0 3.708 0" mask="url(#aH)"/>
            </g>
            <g transform="translate(573)">
                <mask id="aJ" fill="#fff">
                    <use xlink:href="#aI"/>
                </mask>
                <path fill="#15BAE6" d="M3.99 2.144a1.854 1.854 0 1 0-3.708 0 1.855 1.855 0 1 0 3.708 0" mask="url(#aJ)"/>
            </g>
            <g transform="translate(589)">
                <mask id="aL" fill="#fff">
                    <use xlink:href="#aK"/>
                </mask>
                <path fill="#15BAE6" d="M4.614 2.144c0-1.026-.887-1.857-1.985-1.857C1.53.287.642 1.118.642 2.144.642 3.169 1.53 4 2.63 4c1.098 0 1.985-.83 1.985-1.856" mask="url(#aL)"/>
            </g>
            <g transform="translate(556)">
                <mask id="aN" fill="#fff">
                    <use xlink:href="#aM"/>
                </mask>
                <path fill="#15BAE6" d="M4.65 2.144c0-1.026-.888-1.857-1.985-1.857-1.099 0-1.987.831-1.987 1.857C.678 3.169 1.566 4 2.665 4 3.763 4 4.65 3.17 4.65 2.144" mask="url(#aN)"/>
            </g>
            <g transform="translate(819)">
                <mask id="aP" fill="#fff">
                    <use xlink:href="#aO"/>
                </mask>
                <path fill="#15BAE6" d="M4.362 2.144c0-1.026-.888-1.857-1.986-1.857C1.278.287.39 1.118.39 2.144.39 3.169 1.278 4 2.376 4s1.986-.83 1.986-1.856" mask="url(#aP)"/>
            </g>
            <g transform="translate(835)">
                <mask id="aR" fill="#fff">
                    <use xlink:href="#aQ"/>
                </mask>
                <path fill="#15BAE6" d="M3.72 2.144a1.854 1.854 0 1 0-3.706 0 1.854 1.854 0 1 0 3.707 0" mask="url(#aR)"/>
            </g>
            <g transform="translate(852)">
                <mask id="aT" fill="#fff">
                    <use xlink:href="#aS"/>
                </mask>
                <path fill="#15BAE6" d="M4.326 2.144c0-1.026-.887-1.857-1.986-1.857S.354 1.118.354 2.144C.353 3.169 1.24 4 2.34 4s1.986-.83 1.986-1.856" mask="url(#aT)"/>
            </g>
            <g transform="translate(720)">
                <mask id="aV" fill="#fff">
                    <use xlink:href="#aU"/>
                </mask>
                <path fill="#15BAE6" d="M4.47 2.144c0-1.026-.888-1.857-1.986-1.857-1.098 0-1.986.831-1.986 1.857C.498 3.169 1.386 4 2.484 4 3.582 4 4.47 3.17 4.47 2.144" mask="url(#aV)"/>
            </g>
            <g transform="translate(802)">
                <mask id="aX" fill="#fff">
                    <use xlink:href="#aW"/>
                </mask>
                <path fill="#15BAE6" d="M3.755 2.144a1.854 1.854 0 1 0-3.708 0 1.855 1.855 0 1 0 3.708 0" mask="url(#aX)"/>
            </g>
            <g transform="translate(868)">
                <mask id="aZ" fill="#fff">
                    <use xlink:href="#aY"/>
                </mask>
                <path fill="#15BAE6" d="M4.665 2.144c0-1.026-.888-1.857-1.986-1.857C1.58.287.693 1.118.693 2.144.692 3.169 1.58 4 2.678 4c1.099 0 1.986-.83 1.986-1.856" mask="url(#aZ)"/>
            </g>
            <g transform="translate(737)">
                <mask id="bb" fill="#fff">
                    <use xlink:href="#ba"/>
                </mask>
                <path fill="#15BAE6" d="M3.822 2.144a1.854 1.854 0 1 0-3.708 0 1.855 1.855 0 1 0 3.708 0" mask="url(#bb)"/>
            </g>
            <g transform="translate(753)">
                <mask id="bd" fill="#fff">
                    <use xlink:href="#bc"/>
                </mask>
                <path fill="#15BAE6" d="M4.434 2.144c0-1.026-.888-1.857-1.986-1.857C1.35.287.462 1.118.462 2.144.462 3.169 1.35 4 2.448 4c1.098 0 1.986-.83 1.986-1.856" mask="url(#bd)"/>
            </g>
            <g transform="translate(770)">
                <mask id="bf" fill="#fff">
                    <use xlink:href="#be"/>
                </mask>
                <path fill="#15BAE6" d="M3.789 2.144a1.854 1.854 0 1 0-3.708 0 1.854 1.854 0 1 0 3.708 0" mask="url(#bf)"/>
            </g>
            <g transform="translate(524)">
                <mask id="bh" fill="#fff">
                    <use xlink:href="#bg"/>
                </mask>
                <path fill="#15BAE6" d="M3.707 2.144a1.854 1.854 0 1 0-3.707 0 1.854 1.854 0 1 0 3.707 0" mask="url(#bh)"/>
            </g>
            <g transform="translate(787)">
                <mask id="bj" fill="#fff">
                    <use xlink:href="#bi"/>
                </mask>
                <path fill="#15BAE6" d="M4.398 2.144c0-1.026-.888-1.857-1.986-1.857-1.098 0-1.987.831-1.987 1.857C.425 3.169 1.314 4 2.412 4s1.986-.83 1.986-1.856" mask="url(#bj)"/>
            </g>
        </g>
    </g>
</svg>
