<svg xmlns="http://www.w3.org/2000/svg" xmlns:xlink="http://www.w3.org/1999/xlink" width="123" height="123" viewBox="0 0 123 123">
    <defs>
        <path id="a" d="M0 73h84V0H0z"/>
    </defs>
    <g fill="none" fill-rule="evenodd">
        <circle cx="61.474" cy="61.474" r="61.474" fill="#F8F8F8"/>
        <g transform="translate(19 25)">
            <path fill="#B1DCFF" d="M82.586 63c.781 0 1.414.597 1.414 1.333v1.334C84 68.612 81.468 71 78.345 71H7.655C4.532 71 2 68.612 2 65.667v-1.334C2 63.597 2.633 63 3.414 63h33.93v1.333c0 .737.634 1.334 1.415 1.334h8.482c.781 0 1.414-.597 1.414-1.334V63h33.931z"/>
            <path fill="#B1DCFF" d="M37 64c0 .552.616 1 1.375 1h8.25c.76 0 1.375-.448 1.375-1v-1H37v1zM47.214 10H13.786A2.778 2.778 0 0 0 11 12.77v22.153c0 1.53 1.247 2.77 2.786 2.77h11.143L33.286 46v-8.308h13.928A2.778 2.778 0 0 0 50 34.923V12.77C50 11.24 48.753 10 47.214 10"/>
            <path fill="#009BE5" d="M81.2 65.98a4.206 4.206 0 0 1-4.2 4.212H7c-2.32 0-4.2-1.885-4.2-4.211v-1.404H35a2.804 2.804 0 0 0 2.8 2.808h8.4c1.546 0 2.8-1.258 2.8-2.808h32.2v1.404zM5.6 21.059a4.206 4.206 0 0 1 4.2-4.212v18.25a4.206 4.206 0 0 0 4.2 4.212h10.62l7.99 8.011a1.398 1.398 0 0 0 2.39-.992v-7.02h12.6c2.32 0 4.2-1.885 4.2-4.21v-4.212h2.8v7.019a1.404 1.404 0 0 0 1.4 1.404c.371 0 .727-.148.99-.412l7.99-8.011H70c2.32 0 4.2-1.886 4.2-4.212v-9.827c2.32 0 4.2 1.886 4.2 4.212v40.711H5.6V21.058zm7-8.423c0-.776.627-1.404 1.4-1.404h33.6c.773 0 1.4.628 1.4 1.404v22.461c0 .775-.627 1.404-1.4 1.404h-14c-.773 0-1.4.629-1.4 1.404v5.034l-6.01-6.027a1.398 1.398 0 0 0-.99-.411H14c-.773 0-1.4-.629-1.4-1.404V12.635zM35 4.212c0-.776.627-1.404 1.4-1.404H70c.773 0 1.4.628 1.4 1.404v22.461c0 .775-.627 1.404-1.4 1.404h-5.6c-.371 0-.727.148-.99.411l-6.01 6.027v-5.034c0-.776-.627-1.404-1.4-1.404h-4.2V12.635a4.206 4.206 0 0 0-4.2-4.212H35V4.212zm46.2 57.557V21.058c-.005-3.875-3.136-7.015-7-7.02V4.212A4.206 4.206 0 0 0 70 0H36.4c-2.32 0-4.2 1.886-4.2 4.212v4.211H14c-2.32 0-4.2 1.886-4.2 4.212v1.403c-3.864.005-6.995 3.145-7 7.02v40.711A2.804 2.804 0 0 0 0 64.577v1.404C.005 69.856 3.136 72.995 7 73h70c3.864-.005 6.995-3.144 7-7.02v-1.403a2.804 2.804 0 0 0-2.8-2.808z"/>
            <mask id="b" fill="#fff">
                <use xlink:href="#a"/>
            </mask>
            <path fill="#009BE5" d="M18 19h25v-2H18zM18 24h25v-2H18zM18 30h25v-2H18zM55 10h11V8H55zM55 16h11v-2H55zM55 22h11v-2H55zM76 56.167V42h-2.809v14.167H12.81V42H10v14.167C10 57.73 11.258 59 12.809 59H73.19C74.742 59 76 57.731 76 56.167" mask="url(#b)"/>
        </g>
    </g>
</svg>
