<svg xmlns="http://www.w3.org/2000/svg" width="123" height="123" viewBox="0 0 123 123">
    <g fill="none" fill-rule="evenodd">
        <circle cx="61.474" cy="61.474" r="61.474" fill="#F8F8F8"/>
        <g fill-rule="nonzero">
            <path fill="#3D9AE2" d="M77.051 95H46.002A5.985 5.985 0 0 1 40 88.998V34.002A5.985 5.985 0 0 1 46.002 28h30.995a5.985 5.985 0 0 1 6.002 6.002v54.996C83.054 92.327 80.325 95 77.051 95zM46.002 30.728a3.283 3.283 0 0 0-3.274 3.274v54.996c0 1.8 1.474 3.274 3.274 3.274h30.995c1.8 0 3.274-1.473 3.274-3.274V34.002c0-1.8-1.474-3.274-3.274-3.274H46.002z"/>
            <path fill="#B1DCFF" d="M75.007 85H48.993C47.361 85 46 83.64 46 82.01V36.99c0-1.63 1.36-2.99 2.993-2.99h26.014C76.639 34 78 35.36 78 36.99v45.02A2.983 2.983 0 0 1 75.007 85z"/>
            <path fill="#3D9AE2" d="M57 87h9v2h-9z"/>
            <g fill="#3D9AE2">
                <path d="M62.055 63.541c-.66 0-1.21-.536-1.21-1.18h-2.42c0 1.502.99 2.844 2.42 3.327v1.395h2.42v-1.395c1.43-.483 2.42-1.825 2.42-3.327 0-1.932-1.815-2.79-3.08-3.434-1.045-.483-1.76-.912-1.76-1.288 0-.644.55-1.18 1.21-1.18.66 0 1.21.536 1.21 1.18h2.42c0-1.502-.99-2.844-2.42-3.327v-1.395h-2.42v1.395c-1.43.483-2.42 1.825-2.42 3.327 0 1.932 1.815 2.79 3.08 3.434 1.045.483 1.76.912 1.76 1.288 0 .644-.55 1.18-1.21 1.18z"/>
                <path d="M62.055 70.624C68.105 70.624 73 65.85 73 59.946c0-5.902-4.895-10.678-10.945-10.678-6.05 0-10.945 4.776-10.945 10.678.055 5.903 4.95 10.678 10.945 10.678zm0-18.941c4.675 0 8.47 3.702 8.47 8.263s-3.795 8.264-8.47 8.264c-4.675 0-8.47-3.649-8.47-8.21 0-4.615 3.795-8.317 8.47-8.317z"/>
            </g>
        </g>
    </g>
</svg>
