<svg xmlns="http://www.w3.org/2000/svg" xmlns:xlink="http://www.w3.org/1999/xlink" width="91" height="91" viewBox="0 0 91 91">
    <defs>
        <circle id="b" cx="39.5" cy="39.5" r="39.5"/>
        <filter id="a" width="124.1%" height="124.1%" x="-12%" y="-10.8%" filterUnits="objectBoundingBox">
            <feOffset dy="1" in="SourceAlpha" result="shadowOffsetOuter1"/>
            <feGaussianBlur in="shadowOffsetOuter1" result="shadowBlurOuter1" stdDeviation="3"/>
            <feColorMatrix in="shadowBlurOuter1" values="0 0 0 0 0.133333333 0 0 0 0 0.176470588 0 0 0 0 0.364705882 0 0 0 0.273833786 0"/>
        </filter>
    </defs>
    <g fill="none" fill-rule="evenodd">
        <g transform="translate(6 5)">
            <use fill="#000" filter="url(#a)" xlink:href="#b"/>
            <use fill="#15BAE6" xlink:href="#b"/>
        </g>
        <g fill="#FFF" fill-rule="nonzero">
            <path d="M63.255 39.86L46.339 23.708c-.998-.95-2.612-.938-3.596 0a2.355 2.355 0 0 0 0 3.432L59.66 43.29c.991.947 2.602.947 3.594 0a2.346 2.346 0 0 0 0-3.43zM42.156 29l-.128.608c-.897 4.274-3.078 8.334-6.028 11.624L45.21 50c3.455-2.808 7.661-4.94 12.15-5.795l.64-.122L42.156 29zM34.23 44l-6.14 5.755c-1.45 1.36-1.456 3.568 0 4.934l3.508 3.289c1.45 1.36 3.806 1.366 5.263 0L43 52.222 34.23 44zm.877 9.045a1.3 1.3 0 0 1-1.754 0 1.112 1.112 0 0 1 0-1.644l1.754-1.645a1.3 1.3 0 0 1 1.754 0c.484.454.484 1.19 0 1.645l-1.754 1.644zM48.114 58.772l1.753-1.598c1.513-1.38 1.508-3.612 0-4.986L48.565 51c-.72.44-1.407.92-2.075 1.431l1.555 1.42a1.101 1.101 0 0 1 0 1.661l-1.782 1.625-2.619-2.314L40 58.147l5.846 5.167c.998.912 2.636.917 3.643-.001 1.006-.917 1.006-2.408 0-3.325l-1.375-1.216zM53 23a1 1 0 0 0-1 1v2a1 1 0 1 0 2 0v-2a1 1 0 0 0-1-1zM62.75 33h-2.5c-.69 0-1.25.447-1.25 1 0 .553.56 1 1.25 1h2.5c.69 0 1.25-.447 1.25-1 0-.553-.56-1-1.25-1zM60.634 25.293c-.488-.39-1.28-.39-1.768 0l-2.5 2c-.488.39-.488 1.023 0 1.414.488.39 1.28.39 1.768 0l2.5-2c.488-.39.488-1.023 0-1.414z"/>
        </g>
    </g>
</svg>
