<svg xmlns="http://www.w3.org/2000/svg" xmlns:xlink="http://www.w3.org/1999/xlink" width="123" height="123" viewBox="0 0 123 123">
    <defs>
        <path id="a" d="M0 0v27.58h63V0z"/>
        <path id="c" d="M0 63h63V0H0z"/>
    </defs>
    <g fill="none" fill-rule="evenodd">
        <circle cx="61.474" cy="61.5" r="61.474" fill="#F8F8F8"/>
        <g fill="#B1DCFF">
            <path d="M30.052 92.026h8.414a1.05 1.05 0 0 0 1.051-1.047V67.956a1.05 1.05 0 0 0-1.051-1.046h-8.414A1.05 1.05 0 0 0 29 67.956V90.98c0 .578.47 1.047 1.052 1.047M71.068 64.817c-2.323 0-4.206-1.874-4.206-4.186s1.883-4.186 4.206-4.186c2.324 0 4.207 1.874 4.207 4.186s-1.883 4.186-4.207 4.186m16.828-12.558H54.24a2.098 2.098 0 0 0-2.104 2.093V66.91c0 1.156.942 2.093 2.104 2.093h33.655a2.098 2.098 0 0 0 2.103-2.093V54.352a2.098 2.098 0 0 0-2.103-2.093M42.672 51.212c0 2.312-1.883 4.186-4.206 4.186-2.324 0-4.207-1.874-4.207-4.186s1.883-4.186 4.207-4.186c2.323 0 4.206 1.874 4.206 4.186"/>
        </g>
        <path fill="#B1DCFF" d="M87.849 41.27c0 2.342-1.88 4.242-4.2 4.242-2.32 0-4.2-1.9-4.2-4.242 0-2.344 1.88-4.243 4.2-4.243 2.32 0 4.2 1.9 4.2 4.243"/>
        <g transform="translate(28 65.666)">
            <mask id="b" fill="#fff">
                <use xlink:href="#a"/>
            </mask>
            <path fill="#009BE5" d="M60.081 24.415a3.146 3.146 0 0 1-2.332 1.043H18.485a1.04 1.04 0 0 1-.502-.13L12.6 19.73V4.243h2.28c.278 0 .546.112.743.311l5.684 5.743c.197.199.464.31.742.31h18.9c1.74 0 3.15 1.426 3.15 3.183v2.121c0 .586-.47 1.06-1.05 1.06h-14.7v2.122h29.22c1.665-.036 3.092 1.197 3.315 2.864.092.898-.2 1.792-.803 2.458zM2.1 25.458h8.4V2.122H2.1v23.336zm55.468-8.486H46.02c.119-.341.18-.7.18-1.061V13.79c-.003-2.928-2.351-5.3-5.25-5.304H22.484l-5.376-5.432a3.113 3.113 0 0 0-2.229-.932H12.6A2.11 2.11 0 0 0 10.5 0H2.1C.94 0 0 .95 0 2.122v23.336a2.11 2.11 0 0 0 2.1 2.121h8.4c1.16 0 2.1-.95 2.1-2.121V22.77l3.967 4.13c.051.054.109.102.17.144a3.12 3.12 0 0 0 1.748.53h39.264a5.228 5.228 0 0 0 3.89-1.74 5.339 5.339 0 0 0 1.336-4.082c-.334-2.751-2.662-4.81-5.407-4.781z" mask="url(#b)"/>
        </g>
        <g transform="translate(28 30.026)">
            <path fill="#009BE5" d="M60.899 36.75v-12.6c0-.58-.47-1.05-1.05-1.05h-33.6c-.58 0-1.05.47-1.05 1.05v12.6c0 .58.47 1.05 1.05 1.05h33.6c.58 0 1.05-.47 1.05-1.05zM59.849 21a3.15 3.15 0 0 1 3.15 3.15v12.6a3.15 3.15 0 0 1-3.15 3.15h-33.6a3.15 3.15 0 0 1-3.15-3.15v-12.6A3.15 3.15 0 0 1 26.25 21h33.6z"/>
            <path fill="#009BE5" d="M43.05 33.6a3.15 3.15 0 1 1 0-6.3 3.15 3.15 0 0 1 0 6.3m0-8.4a5.25 5.25 0 1 0 0 10.5 5.25 5.25 0 0 0 0-10.5M10.5 17.85a3.15 3.15 0 1 1 0 6.3 3.15 3.15 0 0 1 0-6.3m0 8.4A5.25 5.25 0 1 0 5.25 21a5.256 5.256 0 0 0 5.25 5.25M55.649 8.401a3.15 3.15 0 1 1 0 6.3 3.15 3.15 0 0 1 0-6.3m0 8.4a5.25 5.25 0 0 0 1.05-10.395V1.051h-2.1v5.355a5.196 5.196 0 0 0-2.1.971V4.201h-2.1v7.35a5.256 5.256 0 0 0 5.25 5.25"/>
            <mask id="d" fill="#fff">
                <use xlink:href="#c"/>
            </mask>
            <path fill="#009BE5" d="M50.4 31.5h2.1v-2.1h-2.1zM33.6 31.5h2.1v-2.1h-2.1zM5.25 14.7h2.1V8.402h-2.1zM5.25 6.301h2.1v-2.1h-2.1zM9.45 11.551h2.1v-6.3h-2.1zM9.45 3.151h2.1v-2.1h-2.1zM13.65 12.601h2.1v-4.2h-2.1zM13.65 5.251h2.1v-2.1h-2.1zM50.4 2.101h2.1v-2.1h-2.1zM58.799 6.301h2.1v-2.1h-2.1zM58.799 2.101h2.1v-2.1h-2.1zM25.2 18.9h2.1v-4.2h-2.1zM25.2 12.601h2.1v-4.2h-2.1zM25.2 6.301h2.1v-2.1h-2.1zM31.5 18.9h2.1v-6.299h-2.1zM31.5 10.501h2.1v-4.2h-2.1zM31.5 4.201h2.1v-2.1h-2.1zM37.8 18.9h2.1V8.402h-2.1zM37.8 6.301h2.1v-2.1h-2.1zM37.8 2.101h2.1v-2.1h-2.1zM44.1 16.8h2.1v-5.249h-2.1zM44.1 9.451h2.1v-4.2h-2.1zM44.1 3.151h2.1v-2.1h-2.1z" mask="url(#d)"/>
        </g>
    </g>
</svg>
