<svg xmlns="http://www.w3.org/2000/svg" xmlns:xlink="http://www.w3.org/1999/xlink" width="123" height="123" viewBox="0 0 123 123">
    <defs>
        <path id="a" d="M0 69h69.857V0H0z"/>
        <path id="c" d="M70 68.857V.092H0v68.765h70z"/>
    </defs>
    <g fill="none" fill-rule="evenodd">
        <circle cx="61.474" cy="61.5" r="61.474" fill="#F8F8F8"/>
        <g transform="translate(32 26.026)">
            <path fill="#B1DCFF" d="M40.193 14.992a2.295 2.295 0 0 1-2.297-2.293V1.24l13.78 13.753H40.193zM35.6 19.576c0 5.063-4.114 9.169-9.188 9.169-5.074 0-9.187-4.106-9.187-9.169 0-5.063 4.113-9.17 9.187-9.17 5.074 0 9.187 4.107 9.187 9.17M59.448 20.366l3.445-5.955-19.522 33.745-.154 2.559 1.99 1.146 2.142-1.412 4.327-7.48v-.472.472l11.75-20.312z"/>
            <path fill="#B1DCFF" d="M63.426 22.657l3.445-5.954-3.445 5.954z"/>
            <path fill="#B1DCFF" d="M63.426 22.657l3.445-5.959c.416-.71.42-1.587.01-2.3a2.298 2.298 0 0 0-3.988.008l-3.445 5.96 3.978 2.291z"/>
            <mask id="b" fill="#fff">
                <use xlink:href="#a"/>
            </mask>
            <path fill="#009BE5" d="M10.335 34.475h4.593v-2.293h-4.593zM17.225 34.475h2.297v-2.293h-2.297zM21.819 34.475h20.67v-2.293H21.82zM10.335 41.35h13.78V39.06h-13.78zM26.412 41.35h4.594V39.06h-4.594zM33.302 41.35h9.188V39.06h-9.188zM10.335 48.228h9.187v-2.293h-9.187zM21.819 48.228h9.187v-2.293h-9.187zM33.302 48.228h6.89v-2.293h-6.89zM39.274 56.915a3.87 3.87 0 0 0-2.2.644c-.295.217-.654.33-1.02.32-.364.011-.722-.1-1.015-.319a4.065 4.065 0 0 0-4.395 0c-.61.423-1.42.423-2.031 0a3.844 3.844 0 0 0-2.2-.645v2.292c.364-.012.722.1 1.014.318 1.338.86 3.057.86 4.395 0a1.78 1.78 0 0 1 2.03 0c1.34.86 3.06.86 4.399 0a1.789 1.789 0 0 1 2.04 0 3.86 3.86 0 0 0 2.198.645v-2.292a1.637 1.637 0 0 1-1.02-.319 3.857 3.857 0 0 0-2.195-.644M26.412 23.014a1.146 1.146 0 0 1-1.148-1.146h-2.297a3.439 3.439 0 0 0 2.297 3.228v1.356h2.296v-1.356a3.439 3.439 0 0 0 2.298-3.228c0-1.854-1.696-2.7-2.933-3.318-.972-.485-1.66-.86-1.66-1.266a1.147 1.147 0 1 1 2.296 0h2.297a3.44 3.44 0 0 0-2.298-3.227v-1.358h-2.296v1.358a3.44 3.44 0 0 0-2.297 3.227c0 1.854 1.695 2.7 2.932 3.317.973.486 1.661.861 1.661 1.267 0 .634-.514 1.146-1.148 1.146" mask="url(#b)"/>
        </g>
        <path fill="#009BE5" d="M58.467 37.58c4.448 0 8.055 3.59 8.055 8.022 0 4.43-3.607 8.022-8.055 8.022-4.45 0-8.056-3.592-8.056-8.022.005-4.429 3.61-8.018 8.056-8.023m0 18.337c5.72 0 10.356-4.618 10.356-10.314 0-5.697-4.637-10.315-10.356-10.315-5.72 0-10.357 4.618-10.357 10.315.007 5.693 4.64 10.308 10.357 10.314"/>
        <g transform="translate(32 26.026)">
            <mask id="d" fill="#fff">
                <use xlink:href="#c"/>
            </mask>
            <path fill="#009BE5" d="M50.632 63.126c0 1.9-1.546 3.439-3.452 3.439H5.753a3.445 3.445 0 0 1-3.451-3.439V5.823a3.445 3.445 0 0 1 3.451-3.438h31.07v10.314c0 1.9 1.546 3.439 3.452 3.439h10.357v17.19h.094l-8.264 14.256c-.09.154-.142.326-.151.504l-.154 2.558c-.026.434.197.845.575 1.061l-2.301 3.97 1.993 1.146 2.301-3.97a1.146 1.146 0 0 0 1.209-.041L48.08 51.4c.15-.097.273-.229.364-.383l2.187-3.77v15.88zm-1.628-49.28h-8.729c-.635 0-1.15-.514-1.15-1.147V4.005l9.88 9.84zm16.587.719c.55.316.739 1.017.422 1.565l-2.877 4.962-1.994-1.146 2.877-4.962a1.153 1.153 0 0 1 1.572-.42zM46.586 49.64l-1.327.878-.762-.437.096-1.581L59.99 21.93l1.994 1.146-15.4 26.564zm22.837-30.226l-1.992-1.146.576-.993a3.433 3.433 0 0 0-1.266-4.7 3.463 3.463 0 0 0-4.719 1.261l-9.089 15.686V14.992c0-.024-.013-.046-.014-.07a1.13 1.13 0 0 0-.06-.298c-.012-.037-.021-.07-.038-.106a1.161 1.161 0 0 0-.23-.337L38.784.428a1.134 1.134 0 0 0-.336-.229c-.037-.017-.072-.026-.115-.04a1.16 1.16 0 0 0-.293-.057c-.016.003-.039-.01-.066-.01H5.753C2.578.096.003 2.66 0 5.822v57.304c.004 3.164 2.578 5.728 5.753 5.731H47.18c3.176-.003 5.75-2.567 5.753-5.73V43.277l13.349-23.024.996.573-4.028 6.947 1.993 1.146 4.604-7.94a1.144 1.144 0 0 0-.424-1.565z" mask="url(#d)"/>
        </g>
    </g>
</svg>
