<svg xmlns="http://www.w3.org/2000/svg" xmlns:xlink="http://www.w3.org/1999/xlink" width="91" height="91" viewBox="0 0 91 91">
    <defs>
        <circle id="b" cx="39.5" cy="39.5" r="39.5"/>
        <filter id="a" width="124.1%" height="124.1%" x="-12%" y="-10.8%" filterUnits="objectBoundingBox">
            <feOffset dy="1" in="SourceAlpha" result="shadowOffsetOuter1"/>
            <feGaussianBlur in="shadowOffsetOuter1" result="shadowBlurOuter1" stdDeviation="3"/>
            <feColorMatrix in="shadowBlurOuter1" values="0 0 0 0 0.133333333 0 0 0 0 0.176470588 0 0 0 0 0.364705882 0 0 0 0.273833786 0"/>
        </filter>
    </defs>
    <g fill="none" fill-rule="evenodd">
        <g transform="translate(6 5)">
            <use fill="#000" filter="url(#a)" xlink:href="#b"/>
            <use fill="#15BAE6" xlink:href="#b"/>
        </g>
        <g fill="#FFF" fill-rule="nonzero">
            <path d="M57.477 34.123C56.974 30.112 53.352 27 48.957 27c-2.864 0-5.399 1.323-6.957 3.355.182-.006.365-.01.548-.01 6.432 0 11.952 4.083 13.594 9.77A10.114 10.114 0 0 1 61.386 43c.997-.941 1.614-2.24 1.614-3.674 0-2.873-2.473-5.203-5.523-5.203z"/>
            <path d="M53.724 43.16C53.06 37.438 48.289 33 42.5 33c-5.789 0-10.56 4.438-11.224 10.16-4.018 0-7.276 3.322-7.276 7.42S27.258 58 31.276 58h22.448C57.742 58 61 54.678 61 50.58s-3.258-7.42-7.276-7.42z"/>
        </g>
    </g>
</svg>
