<svg xmlns="http://www.w3.org/2000/svg" width="123" height="123" viewBox="0 0 123 123">
    <g fill="none" fill-rule="evenodd">
        <circle cx="61.474" cy="61.474" r="61.474" fill="#F8F8F8"/>
        <g fill="#B1DCFF">
            <path d="M85.24 33v2.29c0 .633-.517 1.146-1.153 1.146h-4.609v2.291c0 .633.516 1.146 1.152 1.146H91l-2.304-3.437L91 33h-5.76zM42.609 68.51V96c-.012-1.898 1.527-3.445 3.436-3.457 1.909-.01 3.466 1.519 3.477 3.417V96c0-1.898 1.547-3.436 3.456-3.436 1.91 0 3.457 1.538 3.457 3.436V68.51H42.609zM52.97 47.89l-3.448 4.583v16.036h8.065V52.473h18.435c.636 0 1.152-.513 1.152-1.146v-2.29c0-.633-.516-1.146-1.152-1.146H52.97zM49.522 52.473l-3.457-4.582h-1.152c-3.818 0-6.913 3.077-6.913 6.873v12.6c0 .632.516 1.145 1.152 1.145h10.37V52.473zM50.674 37.582a4.264 4.264 0 0 0 3.456 2.29v-.948c.04-2.408-1.751-4.46-4.155-4.757a4.627 4.627 0 0 0-3.548 1.165 4.57 4.57 0 0 0-1.514 3.395v2.291s4.609 0 5.76-3.436"/>
        </g>
        <path fill="#B1DCFF" d="M86 34.9v-4.6c0-.635-.522-1.15-1.167-1.15h-10.5v6.9h10.5c.645 0 1.167-.515 1.167-1.15"/>
        <path fill="#009BE5" d="M88.53 36.688l1.124 1.662h-8.32V37.2h3.5c1.288 0 2.333-1.03 2.333-2.3v-1.15h2.487l-1.125 1.662c-.261.386-.261.89 0 1.276zM75.5 34.9h9.333v-4.6H75.5v4.6zM76.667 51H58c-.644 0-1.167.515-1.167 1.15V67.1H51V52.532l2.91-3.832h22.757V51zm-21 40.89a4.578 4.578 0 0 0-4.667 0V72.85h-2.333v19.037a4.575 4.575 0 0 0-4.667 0V69.4h11.667v22.49zm-4.353 2.81a2.34 2.34 0 0 1 2.02-1.148 2.34 2.34 0 0 1 2.019 1.148h-4.04zm-7 0a2.34 2.34 0 0 1 2.02-1.148 2.34 2.34 0 0 1 2.019 1.148h-4.04zm-4.98-40.25c.003-3.174 2.612-5.746 5.833-5.75h.583l2.917 3.833V67.1H44V54.45h-2.333V67.1h-2.334V54.45zm8.145-18.654a3.532 3.532 0 0 1 2.704-.88c1.62.207 2.895 1.467 3.1 3.065a3.924 3.924 0 0 1-1.233-1.295 1.14 1.14 0 0 0-1.133-.636c-.47.033-.874.343-1.023.783a4.362 4.362 0 0 1-3.56 2.532V38.35c0-.972.416-1.9 1.145-2.554zm4.688 8.304c-.645 0-1.167.515-1.167 1.15v2.3c.003.278.11.545.298.75l-1.465 1.932-1.466-1.928c.19-.206.297-.475.3-.754v-2.3c0-.635-.523-1.15-1.167-1.15a1.158 1.158 0 0 1-1.167-1.15V41.7a7.66 7.66 0 0 0 4.834-2.43c.607.58 1.352.999 2.166 1.22v2.46c0 .635-.522 1.15-1.166 1.15zM90.9 36.05l1.902-2.812c.238-.352.26-.806.058-1.18a1.169 1.169 0 0 0-1.027-.608h-4.666V30.3c0-1.27-1.045-2.3-2.334-2.3h-10.5c-.644 0-1.166.515-1.166 1.15V46.4H53.333v-.197a3.46 3.46 0 0 0 2.334-3.253v-4.402c.032-3.008-2.236-5.558-5.266-5.922a5.888 5.888 0 0 0-4.487 1.464A5.714 5.714 0 0 0 44 38.35v4.6a3.46 3.46 0 0 0 2.333 3.253v.197h-1.166c-4.508.006-8.161 3.607-8.167 8.05V67.1c0 1.27 1.045 2.3 2.333 2.3h2.334v26.45c0 .635.522 1.15 1.166 1.15h14c.645 0 1.167-.515 1.167-1.15V69.4c.644 0 1.167-.515 1.167-1.15V53.3h14v14.95H75.5V53.3h1.167C77.955 53.3 79 52.27 79 51v-2.3c0-1.27-1.045-2.3-2.333-2.3H75.5v-9.2H79v1.15c0 1.27 1.045 2.3 2.333 2.3h10.5c.43 0 .826-.234 1.03-.608.202-.374.18-.827-.059-1.18L90.9 36.05z"/>
    </g>
</svg>
