<svg xmlns="http://www.w3.org/2000/svg" xmlns:xlink="http://www.w3.org/1999/xlink" width="91" height="91" viewBox="0 0 91 91">
    <defs>
        <circle id="b" cx="39.5" cy="39.5" r="39.5"/>
        <filter id="a" width="124.1%" height="124.1%" x="-12%" y="-10.8%" filterUnits="objectBoundingBox">
            <feOffset dy="1" in="SourceAlpha" result="shadowOffsetOuter1"/>
            <feGaussianBlur in="shadowOffsetOuter1" result="shadowBlurOuter1" stdDeviation="3"/>
            <feColorMatrix in="shadowBlurOuter1" values="0 0 0 0 0.133333333 0 0 0 0 0.176470588 0 0 0 0 0.364705882 0 0 0 0.273833786 0"/>
        </filter>
    </defs>
    <g fill="none" fill-rule="evenodd">
        <g transform="translate(6 5)">
            <use fill="#000" filter="url(#a)" xlink:href="#b"/>
            <use fill="#15BAE6" xlink:href="#b"/>
        </g>
        <g fill="#FFF" fill-rule="nonzero">
            <path d="M52.667 22.75H49.77C49.22 21.15 47.739 20 46 20c-1.739 0-3.221 1.15-3.773 2.75h-2.894c-.736 0-1.333.616-1.333 1.375v5.5c0 .759.597 1.375 1.333 1.375h13.334c.736 0 1.333-.616 1.333-1.375v-5.5c0-.759-.597-1.375-1.333-1.375z"/>
            <path d="M59.333 26h-2.666v3.964c0 2.186-1.795 3.965-4 3.965H39.333c-2.205 0-4-1.78-4-3.965V26h-2.666C31.197 26 30 27.187 30 28.643v31.714C30 61.84 31.17 63 32.667 63h26.666C60.83 63 62 61.84 62 60.357V28.643C62 27.16 60.83 26 59.333 26zM45.611 49.4l-5.334 5.286a1.345 1.345 0 0 1-1.888 0l-2.666-2.643a1.314 1.314 0 0 1 0-1.869 1.343 1.343 0 0 1 1.885 0l1.725 1.708 4.39-4.35a1.343 1.343 0 0 1 1.885 0c.52.515.523 1.35.003 1.868zm0-10.572l-5.334 5.286a1.345 1.345 0 0 1-1.888 0l-2.666-2.643a1.314 1.314 0 0 1 0-1.868 1.343 1.343 0 0 1 1.885 0l1.725 1.707 4.39-4.35a1.343 1.343 0 0 1 1.885 0c.52.515.523 1.35.003 1.868zm9.722 13.6H50a1.328 1.328 0 0 1-1.333-1.32c0-.73.597-1.322 1.333-1.322h5.333c.736 0 1.334.592 1.334 1.321 0 .73-.598 1.322-1.334 1.322zm0-10.57H50a1.328 1.328 0 0 1-1.333-1.322c0-.73.597-1.322 1.333-1.322h5.333c.736 0 1.334.592 1.334 1.322 0 .73-.598 1.321-1.334 1.321z"/>
        </g>
    </g>
</svg>
