<svg xmlns="http://www.w3.org/2000/svg" xmlns:xlink="http://www.w3.org/1999/xlink" width="120" height="40" viewBox="0 0 120 40">
    <defs>
        <path id="a" d="M0 0h119.664v40H0z"/>
        <path id="c" d="M0 40h119.664V0H0z"/>
    </defs>
    <g fill="none" fill-rule="evenodd">
        <mask id="b" fill="#fff">
            <use xlink:href="#a"/>
        </mask>
        <path fill="#FFFFFE" d="M118.791 30.465c0 .363 0 .718-.008 1.075 0 .325 0 .623-.005.93-.02.589-.055 1.236-.17 1.853a5.73 5.73 0 0 1-.54 1.67c-.269.52-.612.99-1.014 1.386a5.436 5.436 0 0 1-1.401 1.023 5.841 5.841 0 0 1-1.669.549c-.64.117-1.301.148-1.868.163-.293.007-.6.01-.897.01l-1.084.003-101.69-.002c-.305 0-.603-.004-.905-.011-.559-.015-1.221-.046-1.869-.163a5.871 5.871 0 0 1-1.657-.548 5.407 5.407 0 0 1-1.397-1.016 5.31 5.31 0 0 1-1.02-1.397 5.672 5.672 0 0 1-.542-1.657C.932 33.66.9 32.978.887 32.458c-.007-.211-.014-.913-.014-.913V8.444s.007-.691.013-.894c.013-.524.045-1.206.167-1.872a5.764 5.764 0 0 1 .542-1.662 5.384 5.384 0 0 1 1.015-1.398 5.59 5.59 0 0 1 1.403-1.023 5.84 5.84 0 0 1 1.654-.544C6.34.93 7.024.9 7.543.887l.902-.012h102.769l.913.013c.513.013 1.196.043 1.858.162a5.959 5.959 0 0 1 1.671.548c.512.263.983.606 1.391 1.016.41.406.752.878 1.023 1.404.259.51.434 1.053.536 1.649.118.63.153 1.279.174 1.887.002.284.002.588.002.89.01.375.01.732.01 1.092v20.929zm.865-22.021c0-.306 0-.614-.004-.92-.023-.67-.061-1.34-.186-2.002a6.668 6.668 0 0 0-.617-1.904 6.464 6.464 0 0 0-2.8-2.8 6.753 6.753 0 0 0-1.908-.626c-.659-.12-1.33-.161-2-.177-.305-.005-.618-.011-.922-.013C110.86 0 110.495 0 110.135 0H9.535c-.367 0-.73 0-1.095.002-.306.002-.61.008-.92.013-.664.016-1.338.057-2.002.177a6.637 6.637 0 0 0-1.901.627A6.428 6.428 0 0 0 .194 5.522c-.122.662-.163 1.332-.18 2.002-.01.306-.01.614-.015.92v23.115c.004.31.005.61.015.922.018.67.058 1.339.18 2.002.116.669.313 1.297.625 1.904.303.596.7 1.144 1.177 1.614.473.478 1.02.875 1.62 1.179.609.312 1.23.51 1.9.63.664.12 1.338.159 2.003.177.31.007.614.01.92.01.366.003.728.003 1.095.003h100.6c.36 0 .724 0 1.084-.002.305 0 .618-.004.922-.011.67-.018 1.341-.057 2-.176a6.826 6.826 0 0 0 1.908-.631 6.305 6.305 0 0 0 1.617-1.18 6.392 6.392 0 0 0 1.183-1.613 6.658 6.658 0 0 0 .617-1.904c.125-.663.163-1.332.187-2.002.003-.311.003-.612.003-.922.008-.364.008-.725.008-1.094V9.535c0-.365 0-.728-.008-1.091z" mask="url(#b)"/>
        <path fill="#FFFFFE" d="M24.997 19.89c-.026-2.86 2.342-4.253 2.45-4.318-1.34-1.956-3.42-2.224-4.15-2.245-1.746-.183-3.44 1.045-4.33 1.045-.906 0-2.276-1.026-3.751-.996-1.9.03-3.677 1.13-4.652 2.837-2.011 3.482-.51 8.6 1.416 11.414.964 1.378 2.09 2.918 3.564 2.863 1.443-.059 1.98-.92 3.723-.92 1.725 0 2.23.92 3.734.885 1.548-.024 2.523-1.384 3.453-2.775 1.114-1.58 1.56-3.136 1.579-3.216-.036-.013-3.006-1.145-3.036-4.575M22.156 11.477c.775-.97 1.306-2.29 1.16-3.63-1.124.05-2.529.776-3.337 1.726-.715.836-1.354 2.207-1.189 3.495 1.261.094 2.556-.636 3.366-1.59M38.059 25.59h3.752l-1.85-5.446h-.051l-1.851 5.447zm4.243 1.55h-4.733l-1.137 3.356h-2.005l4.484-12.418h2.083l4.483 12.418h-2.04l-1.135-3.356zM53.249 25.97c0-1.833-.947-3.038-2.393-3.038-1.42 0-2.375 1.23-2.375 3.038 0 1.824.955 3.046 2.375 3.046 1.446 0 2.393-1.196 2.393-3.046m1.91 0c0 2.813-1.506 4.62-3.778 4.62-1.29 0-2.315-.576-2.849-1.583h-.043v4.484h-1.858V21.443h1.799v1.506h.034c.516-.972 1.618-1.601 2.883-1.601 2.298 0 3.812 1.816 3.812 4.622M63.214 25.97c0-1.833-.947-3.038-2.393-3.038-1.42 0-2.375 1.23-2.375 3.038 0 1.824.955 3.046 2.375 3.046 1.446 0 2.393-1.196 2.393-3.046m1.91 0c0 2.813-1.506 4.62-3.778 4.62-1.29 0-2.315-.576-2.85-1.583h-.042v4.484h-1.858V21.443h1.799v1.506h.034c.516-.972 1.618-1.601 2.883-1.601 2.298 0 3.813 1.816 3.813 4.622M71.71 27.036c.138 1.231 1.334 2.04 2.969 2.04 1.566 0 2.692-.809 2.692-1.919 0-.964-.68-1.54-2.288-1.936l-1.61-.388c-2.28-.55-3.338-1.617-3.338-3.348 0-2.142 1.866-3.614 4.516-3.614 2.626 0 4.425 1.472 4.486 3.614H77.26c-.113-1.239-1.136-1.987-2.634-1.987-1.497 0-2.52.757-2.52 1.858 0 .878.654 1.395 2.254 1.79l1.368.336c2.547.603 3.606 1.626 3.606 3.443 0 2.323-1.85 3.778-4.794 3.778-2.754 0-4.613-1.42-4.733-3.667h1.903zM83.346 19.3v2.143h1.722v1.47h-1.722v4.992c0 .776.345 1.137 1.102 1.137a5.7 5.7 0 0 0 .611-.043v1.463c-.206.052-.619.086-1.032.086-1.833 0-2.548-.688-2.548-2.444v-5.19h-1.317v-1.471h1.317V19.3h1.867zM92.76 25.97c0-1.954-.897-3.107-2.402-3.107-1.506 0-2.402 1.162-2.402 3.107 0 1.962.896 3.106 2.402 3.106 1.505 0 2.401-1.144 2.401-3.106m-6.695 0c0-2.85 1.677-4.64 4.294-4.64 2.625 0 4.295 1.79 4.295 4.64 0 2.856-1.662 4.639-4.295 4.639s-4.294-1.783-4.294-4.64M96.185 21.442h1.772v1.541H98c.285-1.024 1.111-1.636 2.178-1.636.267 0 .49.035.637.07v1.738c-.147-.06-.474-.112-.835-.112-1.196 0-1.937.81-1.937 2.083v5.37h-1.858v-9.054zM103.101 25.135h4.526c-.043-1.386-.929-2.298-2.22-2.298-1.283 0-2.21.93-2.306 2.298zm6.282 2.702c-.25 1.644-1.85 2.772-3.898 2.772-2.634 0-4.269-1.765-4.269-4.596 0-2.84 1.644-4.682 4.191-4.682 2.505 0 4.08 1.72 4.08 4.466v.637h-6.395v.112c0 1.549.973 2.565 2.436 2.565 1.032 0 1.842-.491 2.091-1.274h1.764zM37.938 13.912c.834 0 1.276-.339 1.276-.972 0-.624-.459-.95-1.33-.95h-1.287v1.922h1.34zm-1.34-2.655h1.1c.819 0 1.245-.302 1.245-.868 0-.55-.401-.873-1.088-.873h-1.258v1.741zm-.928 3.441V8.731h2.4c1.12 0 1.794.57 1.794 1.488 0 .625-.458 1.183-1.045 1.282v.071c.805.082 1.343.657 1.343 1.434 0 1.051-.764 1.692-2.038 1.692H35.67zM44.009 13.04v-.376l-1.1.07c-.62.04-.901.252-.901.649 0 .406.352.64.835.64.67 0 1.166-.425 1.166-.983m-2.895.385c0-.811.604-1.278 1.675-1.344l1.22-.071v-.388c0-.476-.314-.745-.922-.745-.496 0-.84.183-.938.5h-.861c.09-.773.819-1.27 1.84-1.27 1.129 0 1.766.563 1.766 1.515v3.076h-.856v-.633h-.07c-.27.45-.761.707-1.353.707-.868 0-1.501-.524-1.501-1.347"/>
        <mask id="d" fill="#fff">
            <use xlink:href="#c"/>
        </mask>
        <path fill="#FFFFFE" d="M46.301 14.698h.886v-4.503h-.886v4.503zm-.132-5.835c0-.31.244-.546.575-.546.33 0 .574.236.574.546 0 .306-.244.542-.574.542-.331 0-.575-.236-.575-.542zM50.236 13.102l-.984 1.596h-.976l1.493-2.241-1.506-2.262h1.038l.968 1.588h.071l.958-1.588h.99l-1.486 2.225 1.501 2.278h-1.02l-.98-1.596zM55.982 13.04v-.376l-1.1.07c-.62.04-.9.252-.9.649 0 .406.351.64.834.64.67 0 1.166-.425 1.166-.983m-2.895.385c0-.811.604-1.278 1.675-1.344l1.22-.071v-.388c0-.476-.314-.745-.922-.745-.496 0-.84.183-.938.5h-.86c.09-.773.818-1.27 1.84-1.27 1.128 0 1.765.563 1.765 1.515v3.076h-.856v-.633h-.07c-.269.45-.76.707-1.353.707-.868 0-1.5-.524-1.5-1.347M58.259 10.195h.855v.69h.067c.128-.442.628-.765 1.216-.765.132 0 .3.013.396.037v.877a2.434 2.434 0 0 0-.496-.053c-.674 0-1.15.425-1.15 1.058v2.659h-.888v-4.503zM64.218 10.195h.856v.715h.066c.219-.5.666-.802 1.344-.802 1.005 0 1.559.604 1.559 1.675v2.915h-.89v-2.692c0-.724-.313-1.083-.971-1.083-.657 0-1.075.438-1.075 1.14v2.635h-.89v-4.503zM72.055 13.04v-.376l-1.1.07c-.62.04-.9.252-.9.649 0 .406.351.64.834.64.67 0 1.166-.425 1.166-.983m-2.895.385c0-.811.604-1.278 1.675-1.344l1.22-.071v-.388c0-.476-.314-.745-.922-.745-.496 0-.84.183-.938.5h-.86c.09-.773.818-1.27 1.84-1.27 1.128 0 1.765.563 1.765 1.515v3.076h-.856v-.633h-.07c-.269.45-.76.707-1.353.707-.868 0-1.5-.524-1.5-1.347" mask="url(#d)"/>
    </g>
</svg>
